<?xml version="1.0" encoding="utf-8"?>
<!-- Generator: Adobe Illustrator 16.0.0, SVG Export Plug-In . SVG Version: 6.00 Build 0)  -->
<!DOCTYPE svg PUBLIC "-//W3C//DTD SVG 1.1//EN" "http://www.w3.org/Graphics/SVG/1.1/DTD/svg11.dtd">
<svg version="1.1" xmlns="http://www.w3.org/2000/svg" xmlns:xlink="http://www.w3.org/1999/xlink" x="0px" y="0px"
	 width="255.12px" height="255.12px" viewBox="0 0 255.12 255.12" enable-background="new 0 0 255.12 255.12" xml:space="preserve">
<g id="Layer_1">
</g>
<g id="Layer_2">
	<g>
		<g>
			<path fill-rule="evenodd" clip-rule="evenodd" d="M59.651,188.144c-0.468-0.288-0.902-0.559-1.343-0.826
				c-6.047-3.648-7.51-9.131-6.715-15.796c0.579-4.833,2.265-9.295,3.701-13.859c0.15-0.485,0.305-0.97,0.467-1.451
				c0.021-0.064,0.092-0.108,0.194-0.225c2.188,1.758,3.395,4.097,4.06,6.751c0.298,1.187,0.663,2.391,0.711,3.598
				c0.053,1.319-0.155,2.663-0.382,3.972c-1.008,5.797-1.728,11.598-0.555,17.462C59.802,187.83,59.743,187.901,59.651,188.144z"/>
			<path fill-rule="evenodd" clip-rule="evenodd" d="M169.239,70.499c-1.054-0.399-1.991-0.658-2.835-1.09
				c-4.447-2.287-7.079-5.989-8.66-10.689c-1.643-4.879-3.983-9.453-7.158-13.555c-0.175-0.226-0.351-0.454-0.756-0.98
				c1.354,0.09,2.447,0.115,3.528,0.242c6.343,0.736,9.754,4.907,11.912,10.396c1.06,2.691,1.97,5.459,2.695,8.255
				C168.563,65.383,168.789,67.787,169.239,70.499z"/>
			<path fill-rule="evenodd" clip-rule="evenodd" d="M74.828,73.975c-0.99,2.163-2.427,4.057-4.395,5.487
				c-2.626,1.91-5.549,3.052-8.796,3.598c-2.846,0.476-5.643,1.327-8.404,2.192c-2.472,0.774-4.867,1.79-7.382,2.731
				c0.149-0.764,0.253-1.66,0.505-2.51c1.577-5.25,5.021-8.503,10.343-9.945c3.369-0.916,6.781-1.406,10.235-1.58
				C69.507,73.822,72.093,73.955,74.828,73.975z"/>
			<path fill-rule="evenodd" clip-rule="evenodd" d="M194.11,181.232c-0.683,2.612-1.908,4.603-3.479,6.477
				c-2.604,3.105-6.117,3.878-9.865,4.299c-4.177,0.466-8.296-0.013-12.419-0.553c-1.713-0.224-3.429-0.444-5.267-0.679
				c0.623-1.681,1.831-2.646,3.01-3.559c2.721-2.102,5.84-3.327,9.286-3.385C181.653,183.726,187.91,183.574,194.11,181.232z"/>
			<path fill-rule="evenodd" clip-rule="evenodd" d="M54.065,75.297c0.647-2.526,1.846-4.573,3.501-6.419
				c2.498-2.782,5.705-3.797,9.29-4.215c4.429-0.517,8.786-0.071,13.153,0.531c1.675,0.231,3.346,0.468,5.164,0.722
				c-1.429,2.104-3.067,3.792-5.273,4.89c-2.955,1.475-6.066,2.127-9.384,2.091c-5.374-0.056-10.704,0.362-15.812,2.255
				C54.546,75.209,54.371,75.23,54.065,75.297z"/>
			<path fill-rule="evenodd" clip-rule="evenodd" d="M98.065,212.39c-2.178,0.126-4.184-0.335-6.174-0.907
				c-2.994-0.861-5.1-2.799-6.768-5.362c-1.852-2.846-3.043-5.97-3.912-9.205c-0.929-3.459-1.641-6.978-2.48-10.619
				c1.848,0.094,3.238,0.895,4.543,1.735c3.181,2.042,5.319,4.923,6.593,8.499c1.974,5.538,4.406,10.849,8.132,15.475
				C98.038,212.053,98.025,212.142,98.065,212.39z"/>
			<path fill-rule="evenodd" clip-rule="evenodd" d="M83.774,206.6c-1.112-0.28-2.266-0.459-3.339-0.855
				c-4.095-1.51-7.075-4.085-8.564-8.394c-1.498-4.34-2.035-8.788-2.239-13.311c-0.096-2.131,0.012-4.274,0.027-6.528
				c1.965,0.831,3.679,2.122,5.041,3.776c2.365,2.866,3.743,6.184,4.268,9.895c0.271,1.921,0.805,3.818,1.339,5.692
				c0.606,2.128,1.292,4.235,2.056,6.311c0.396,1.077,1.032,2.066,1.561,3.092C83.874,206.385,83.824,206.492,83.774,206.6z"/>
			<path fill-rule="evenodd" clip-rule="evenodd" d="M38.462,147.819c-2.369-2.897-4.006-9.479-1.703-13.565
				c2.569-4.561,5.876-8.386,9.69-11.86c1.557-1.417,3.133-2.811,4.839-4.342c0.671,2.26,0.97,4.382,0.479,6.5
				c-0.689,2.991-1.718,5.825-3.84,8.203c-3.067,3.434-5.688,7.208-7.804,11.306C39.512,145.246,39.039,146.504,38.462,147.819z"/>
			<path fill-rule="evenodd" clip-rule="evenodd" d="M192.29,100.714c-1.793-1.462-2.979-3.147-3.594-5.17
				c-0.538-1.767-1.055-3.567-1.289-5.39c-0.153-1.185,0.155-2.448,0.366-3.656c1.021-5.858,1.723-11.724,0.648-17.658
				c-0.007-0.03,0.024-0.067,0.063-0.169c0.105,0.012,0.247-0.008,0.354,0.045c5.329,2.599,8.216,7.641,7.898,13.566
				c-0.262,4.811-1.398,9.413-2.985,13.933C193.249,97.65,192.809,99.108,192.29,100.714z"/>
			<path fill-rule="evenodd" clip-rule="evenodd" d="M96.503,60.419c-1.248,0.895-2.404,1.98-3.766,2.648
				c-3.433,1.686-7.01,2.212-10.876,1.463c-5.701-1.1-11.475-1.61-17.272-0.575c-0.028,0.006-0.063-0.03-0.229-0.117
				c1.002-1.985,2.254-3.768,3.975-5.192c3.069-2.54,6.622-3.275,10.54-2.981c5.25,0.396,10.218,1.85,15.123,3.628
				c0.772,0.28,1.565,0.502,2.35,0.751C96.399,60.17,96.452,60.294,96.503,60.419z"/>
			<path fill-rule="evenodd" clip-rule="evenodd" d="M164.073,50.009c1.042,0.2,1.842,0.276,2.591,0.51
				c4.415,1.381,7.83,3.814,9.492,8.411c1.532,4.244,2.131,8.616,2.343,13.063c0.11,2.316-0.011,4.642-0.026,7.063
				c-0.437-0.212-0.97-0.417-1.444-0.714c-4.062-2.542-6.479-6.254-7.328-10.904c-0.867-4.74-2.097-9.362-3.834-13.848
				C165.426,52.453,164.775,51.396,164.073,50.009z"/>
			<path fill-rule="evenodd" clip-rule="evenodd" d="M176.977,58.252c2.499,0.674,4.438,1.794,6.249,3.263
				c3.17,2.568,4.068,6.075,4.526,9.878c0.499,4.141,0.006,8.222-0.453,12.313c-0.208,1.857-0.531,3.703-0.823,5.68
				c-2.307-1.364-3.927-3.215-5.011-5.514c-1.29-2.727-1.979-5.554-1.946-8.642C179.579,69.54,179.164,63.87,176.977,58.252z"/>
			<path fill-rule="evenodd" clip-rule="evenodd" d="M39.922,102.394c0.268-5.008,1.155-9.495,5.552-12.481
				c2.669-1.814,5.514-3.235,8.63-4.051c3.921-1.027,7.861-1.978,11.793-2.96c0.102,0.108,0.201,0.214,0.304,0.323
				c-0.302,0.852-0.522,1.744-0.916,2.551c-1.784,3.674-4.558,6.289-8.352,7.876c-3.688,1.543-7.376,3.107-10.955,4.88
				C43.919,99.549,42.075,101.001,39.922,102.394z"/>
			<path fill-rule="evenodd" clip-rule="evenodd" d="M108.979,56.531c-1.302,0.726-2.289,1.525-3.413,1.857
				c-4.034,1.191-8.029,1.249-12.093-0.258c-4.424-1.642-8.94-3.097-13.727-3.362c-1.071-0.059-2.143-0.138-3.479-0.224
				c3.246-3.866,6.811-6.477,11.894-6.215c4.729,0.245,8.983,2.068,13.162,4.056C103.813,53.571,106.184,55.006,108.979,56.531z"/>
			<path fill-rule="evenodd" clip-rule="evenodd" d="M151.55,196.484c0.859-0.763,1.516-1.513,2.322-2.028
				c3.543-2.274,7.364-3.152,11.594-2.476c5.529,0.884,11.079,1.814,16.713,0.848c0.547-0.094,1.094-0.191,1.641-0.286
				c0.066,0.081,0.134,0.166,0.2,0.247c-0.741,1.047-1.426,2.137-2.229,3.13c-2.932,3.622-6.735,5.261-11.405,5.06
				c-5.046-0.218-9.851-1.46-14.578-3.113C154.476,197.399,153.123,196.992,151.55,196.484z"/>
			<path fill-rule="evenodd" clip-rule="evenodd" d="M209.978,108.812c0.506,1.058,1.096,2.082,1.492,3.178
				c0.837,2.302,1.449,4.671,0.935,7.142c-0.213,1.02-0.551,2.038-0.994,2.979c-2.202,4.663-5.597,8.394-9.383,11.807
				c-1.672,1.507-3.344,3.011-5.148,4.636c-0.701-2.202-0.989-4.3-0.541-6.366c0.717-3.295,2.053-6.281,4.343-8.906
				c3.747-4.291,6.951-8.977,8.939-14.393C209.74,108.864,209.859,108.838,209.978,108.812z"/>
			<path fill-rule="evenodd" clip-rule="evenodd" d="M71.069,198.337c-2.579-0.714-4.627-1.929-6.497-3.575
				c-2.892-2.542-3.778-5.85-4.179-9.489c-0.497-4.507,0.043-8.938,0.636-13.379c0.205-1.532,0.411-3.063,0.618-4.597
				c0.116-0.069,0.233-0.136,0.353-0.204c1.247,1.322,2.713,2.502,3.696,4c1.9,2.893,2.966,6.09,2.924,9.658
				c-0.064,5.767,0.295,11.506,2.324,16.999C70.988,197.877,71.001,198.014,71.069,198.337z"/>
			<path fill-rule="evenodd" clip-rule="evenodd" d="M50.733,130.795c0.378,0.995,0.761,1.778,0.977,2.609
				c1.021,3.933,0.483,7.718-1.271,11.34c-0.662,1.372-1.432,2.694-2.184,4.02c-2.314,4.082-3.967,8.413-4.958,12.999
				c-0.043,0.197-0.155,0.378-0.297,0.708c-0.421-0.509-0.774-0.91-1.101-1.333c-4.322-5.619-3.798-11.403-0.559-17.261
				c2.191-3.963,4.812-7.633,7.774-11.058C49.632,132.227,50.101,131.59,50.733,130.795z"/>
			<path fill-rule="evenodd" clip-rule="evenodd" d="M208.231,154.236c-0.254,4.78-1.059,9.14-5.149,12.183
				c-3.424,2.547-7.341,3.986-11.392,5.055c-3.055,0.806-6.179,1.338-9.273,1.984c-0.095,0.021-0.202-0.024-0.387-0.05
				c0.176-1.699,0.984-3.146,1.865-4.472c1.46-2.192,3.368-4.03,5.717-5.25c1.698-0.882,3.533-1.512,5.336-2.175
				c4.65-1.713,8.938-4.067,12.819-7.151C207.817,154.321,207.902,154.321,208.231,154.236z"/>
			<path fill-rule="evenodd" clip-rule="evenodd" d="M158.097,209.572c-3.47,2.611-7.092,4.792-11.762,3.886
				c-3.26-0.631-6.273-1.908-8.989-3.799c-3.603-2.506-7.136-5.114-10.877-7.804c2.248-1.338,4.414-1.631,6.59-1.669
				c2.888-0.049,5.621,0.686,8.148,2.117c4.666,2.639,9.41,5.096,14.659,6.401c0.729,0.183,1.458,0.359,2.188,0.538
				C158.067,209.352,158.082,209.461,158.097,209.572z"/>
			<path fill-rule="evenodd" clip-rule="evenodd" d="M139.23,200.11c1.25-0.675,2.229-1.382,3.324-1.76
				c3.634-1.259,7.292-1.476,11.022-0.201c4.714,1.609,9.417,3.318,14.453,3.666c1.196,0.083,2.395,0.145,3.66,0.222
				c-0.038,0.133-0.035,0.286-0.109,0.378c-3.896,4.814-8.772,6.946-14.965,5.427c-4.848-1.188-9.367-3.164-13.657-5.698
				C141.844,201.486,140.684,200.901,139.23,200.11z"/>
			<path fill-rule="evenodd" clip-rule="evenodd" d="M205.135,94.154c0.318,0.359,0.587,0.635,0.827,0.934
				c4.294,5.365,4.318,11.05,1.216,16.938c-2.013,3.818-4.439,7.359-7.226,10.655c-0.815,0.964-1.598,1.956-2.5,3.064
				c-1.264-2.549-1.667-5.101-1.463-7.752c0.242-3.123,1.442-5.918,3.031-8.576c2.748-4.598,4.768-9.491,5.872-14.745
				C204.921,94.538,205.009,94.416,205.135,94.154z"/>
			<path fill-rule="evenodd" clip-rule="evenodd" d="M197.883,80.667c5.83,4.51,7.049,9.236,5.7,15.178
				c-1.023,4.503-2.877,8.701-5.182,12.703c-0.812,1.412-1.569,2.856-2.505,4.56c-0.688-1.215-1.487-2.204-1.846-3.332
				c-1.188-3.763-1.387-7.542-0.012-11.361c1.979-5.495,3.687-11.069,3.733-16.997C197.773,81.208,197.832,80.999,197.883,80.667z"
				/>
			<path fill-rule="evenodd" clip-rule="evenodd" d="M50.263,176.023c-4.57-3.621-6.961-7.976-5.979-13.719
				c0.888-5.19,3.008-9.93,5.604-14.475c0.773-1.35,1.497-2.727,2.378-4.337c0.377,0.621,0.683,1.071,0.933,1.548
				c2.203,4.231,2.374,8.57,0.944,13.105c-1.243,3.94-2.315,7.939-3.27,11.958C50.435,171.951,50.464,173.908,50.263,176.023z"/>
			<path fill-rule="evenodd" clip-rule="evenodd" d="M121.339,55.026c-0.688,0.271-1.364,0.622-2.081,0.811
				c-4.117,1.083-8.071,0.626-11.878-1.289c-3.475-1.749-6.922-3.569-10.482-5.125c-2.18-0.951-4.552-1.462-7.224-2.292
				c1.801-1.076,3.352-2.131,5.011-2.969c4.633-2.34,9.045-0.987,13.277,1.143c4.874,2.454,9.101,5.882,13.254,9.383
				C121.263,54.727,121.268,54.817,121.339,55.026z"/>
			<path fill-rule="evenodd" clip-rule="evenodd" d="M202.09,168.415c0.085,0.175,0.148,0.242,0.141,0.3
				c-0.691,4.746-2.666,8.705-7.146,10.923c-3.976,1.968-8.287,2.701-12.68,2.953c-2.972,0.167-5.95,0.239-9.103,0.361
				c0.143-0.421,0.193-0.735,0.342-0.989c1.179-2.03,2.531-3.917,4.566-5.19c2.296-1.431,4.68-2.547,7.418-3
				C191.349,172.825,196.938,171.374,202.09,168.415z"/>
			<path fill-rule="evenodd" clip-rule="evenodd" d="M119.814,40.544c2.923-1.32,5.933-1.788,9.119-1.121
				c2.904,0.609,5.145,2.259,7.231,4.258c3.78,3.618,6.549,7.97,9.207,12.415c0.393,0.654,0.829,1.285,1.238,1.93
				c0.031,0.051,0.011,0.137,0.024,0.363c-0.742,0.055-1.49,0.173-2.232,0.152c-4.111-0.115-7.473-1.958-10.302-4.777
				c-2.861-2.848-5.48-5.941-8.396-8.729C123.963,43.367,121.855,42.079,119.814,40.544z"/>
			<path fill-rule="evenodd" clip-rule="evenodd" d="M54.395,105.831c-0.157,1.633-0.128,3.309-0.509,4.888
				c-0.912,3.768-3.155,6.654-6.11,9.172c-4.24,3.614-8.338,7.417-11.066,12.409c-0.065,0.121-0.19,0.21-0.294,0.322
				c-2.393-4.446-1.983-10.643,1.478-14.681c3.656-4.267,8.123-7.491,12.933-10.297c1.059-0.617,2.077-1.305,3.113-1.959
				C54.091,105.732,54.243,105.783,54.395,105.831z"/>
			<path fill-rule="evenodd" clip-rule="evenodd" d="M158.449,63.66c-1.418-0.384-2.896-0.622-4.237-1.183
				c-3.269-1.365-5.914-3.501-7.802-6.579c-2.456-4-4.776-8.105-8.101-11.505c-1.039-1.063-1.964-2.239-2.943-3.366
				c0.31-0.055,0.884-0.171,1.462-0.251c6.11-0.842,10.687,1.587,14.101,6.566c2.781,4.057,4.808,8.478,6.474,13.085
				c0.352,0.977,0.855,1.897,1.289,2.844C158.61,63.4,158.528,63.53,158.449,63.66z"/>
			<path fill-rule="evenodd" clip-rule="evenodd" d="M59.339,94.084c-0.334,1.317-0.523,2.696-1.028,3.945
				c-1.449,3.589-3.868,6.382-7.24,8.338c-5.091,2.954-9.979,6.174-13.815,10.745c-0.063,0.076-0.18,0.108-0.418,0.246
				c-0.167-0.786-0.394-1.498-0.463-2.225c-0.535-5.612,1.582-10.018,6.146-13.268c4.368-3.108,9.197-5.3,14.229-7.085
				c0.747-0.264,1.473-0.589,2.207-0.888C59.085,93.958,59.213,94.021,59.339,94.084z"/>
			<path fill-rule="evenodd" clip-rule="evenodd" d="M104.571,42.412c1.266-0.573,2.505-1.214,3.806-1.707
				c4.717-1.789,8.887-0.554,12.926,2.167c4.634,3.121,8.192,7.295,11.883,11.364c0.339,0.375,0.659,0.764,1.1,1.273
				c-2.096,0.685-4.133,0.951-6.17,0.55c-3.288-0.646-6.31-1.917-8.878-4.179c-4.343-3.825-9.087-7.029-14.528-9.116
				C104.663,42.647,104.616,42.53,104.571,42.412z"/>
			<path fill-rule="evenodd" clip-rule="evenodd" d="M113.8,201.054c2.312-0.581,4.401-0.934,6.495-0.464
				c3.189,0.72,6.133,1.948,8.643,4.185c3.742,3.333,7.876,6.123,12.441,8.233c0.688,0.317,1.418,0.549,2.408,0.926
				c-1.201,0.698-2.146,1.512-3.236,1.822c-2.95,0.838-5.967,1.468-9.02,0.451c-0.778-0.258-1.511-0.667-2.243-1.047
				c-4.58-2.376-8.173-5.933-11.578-9.71C116.447,204.05,115.203,202.635,113.8,201.054z"/>
			<path fill-rule="evenodd" clip-rule="evenodd" d="M89.808,193.029c1.411,0.373,2.879,0.598,4.218,1.145
				c3.739,1.53,6.453,4.199,8.466,7.713c2.372,4.143,4.957,8.163,8.48,11.466c0.734,0.688,1.503,1.336,2.498,2.219
				c-1.595,0.184-2.935,0.366-4.279,0.478c-0.5,0.041-1.013-0.1-1.521-0.126c-4.708-0.226-7.829-3.004-10.372-6.586
				c-2.86-4.033-4.921-8.486-6.538-13.152c-0.329-0.951-0.736-1.874-1.11-2.809C89.702,193.262,89.755,193.146,89.808,193.029z"/>
			<path fill-rule="evenodd" clip-rule="evenodd" d="M194.066,151.011c-0.354-1.864-0.323-3.562,0.209-5.208
				c1.081-3.343,2.764-6.248,5.53-8.592c4.532-3.839,8.948-7.839,11.907-13.435c1.001,2.176,1.555,4.199,1.549,6.349
				c-0.008,3.265-0.854,6.332-3.074,8.742c-2.736,2.974-5.729,5.705-9.218,7.829C198.704,148.078,196.467,149.509,194.066,151.011z"
				/>
			<path fill-rule="evenodd" clip-rule="evenodd" d="M188.926,162.921c0.151-3.622,1.646-6.358,3.62-8.889
				c1.579-2.027,3.761-3.298,5.907-4.607c3.611-2.2,7.186-4.455,10.165-7.51c0.846-0.869,1.646-1.785,2.628-2.852
				c1.099,5.052,0.582,9.437-2.866,13.186c-2.746,2.987-6.241,4.876-9.816,6.607c-2.222,1.076-4.564,1.898-6.849,2.848
				C190.855,162.06,190.01,162.445,188.926,162.921z"/>
			<path fill-rule="evenodd" clip-rule="evenodd" d="M101.382,198.337c2.086-0.53,3.979-0.299,5.806,0.354
				c3.171,1.128,5.906,2.838,8.126,5.493c3.764,4.506,7.772,8.795,13.049,11.651c0.009,0.126,0.017,0.253,0.023,0.379
				c-1.575,0.402-3.132,1.017-4.733,1.167c-4.131,0.391-7.752-0.752-10.876-3.679c-4.132-3.869-7.192-8.492-10.062-13.288
				C102.311,199.742,101.867,199.093,101.382,198.337z"/>
		</g>
		<g>
			<path d="M110.819,94.097c0.016,0.088,0.028,0.178,0.047,0.267c0.38-0.234,0.752-0.457,1.134-0.649
				c1.904-0.962,3.718-0.407,5.457,0.469c2.003,1.008,3.74,2.417,5.446,3.856c0.021,0.015,0.021,0.053,0.051,0.138
				c-0.282,0.112-0.56,0.255-0.855,0.333c-1.691,0.445-3.316,0.257-4.881-0.529c-1.429-0.718-2.846-1.467-4.309-2.107
				c-0.571-0.249-1.178-0.425-1.824-0.607c0.043,0.154,0.083,0.31,0.131,0.462c1.217,0.312,2.371,0.82,3.512,1.363
				c1.024,0.487,1.998,1.077,3.146,1.704c-0.534,0.298-0.939,0.626-1.402,0.763c-1.064,0.314-2.122,0.434-3.187,0.317
				c2.597,3.584,6.79,5.886,11.447,5.78c4.22-0.095,7.992-2.071,10.529-5.072c-0.796-0.523-1.477-1.191-2.003-2.05
				c-1.01-1.644-1.963-3.331-3.329-4.728c-0.427-0.438-0.807-0.921-1.21-1.384c0.127-0.022,0.364-0.07,0.601-0.104
				c2.512-0.346,4.394,0.652,5.796,2.7c0.696,1.015,1.268,2.09,1.771,3.2c0.085-0.157,0.166-0.316,0.246-0.477
				c-0.583-1.277-1.288-2.494-2.158-3.619c-0.071-0.094-0.144-0.188-0.31-0.403c0.555,0.037,1.005,0.047,1.449,0.099
				c0.831,0.097,1.526,0.349,2.135,0.704c0.219-1.033,0.332-2.099,0.298-3.193c-0.245-7.728-6.691-13.9-14.274-13.667
				c-5.322,0.165-9.876,3.204-12.152,7.547c-0.06,0.117-0.112,0.236-0.169,0.354c-0.105,0.216-0.207,0.434-0.301,0.656
				c-0.685,1.676-1.062,3.512-1.059,5.443C110.594,92.497,110.681,93.305,110.819,94.097z M126.076,91.766
				c1.193,0.25,2.113,0.929,2.972,1.749c1.554,1.488,2.691,3.276,3.784,5.103c0.161,0.269,0.34,0.527,0.509,0.793
				c0.014,0.021,0.004,0.057,0.01,0.149c-0.305,0.022-0.611,0.071-0.917,0.062c-1.69-0.047-3.072-0.804-4.233-1.962
				c-1.176-1.171-2.252-2.442-3.451-3.588c-0.717-0.686-1.581-1.214-2.422-1.845C123.528,91.684,124.766,91.491,126.076,91.766z
				 M117.627,92.293c1.939-0.736,3.652-0.229,5.313,0.89c1.904,1.282,3.366,2.997,4.882,4.67c0.141,0.154,0.272,0.314,0.453,0.523
				c-0.861,0.281-1.698,0.391-2.536,0.226c-1.352-0.266-2.592-0.789-3.648-1.718c-1.785-1.571-3.735-2.888-5.971-3.747
				c-0.021-0.048-0.039-0.096-0.058-0.144C116.583,92.758,117.092,92.494,117.627,92.293z"/>
			<path d="M208.71,167.693L133.063,36.666c-4.849-8.395-12.779-8.395-17.627,0L39.789,167.693
				c-4.849,8.396-0.882,15.265,8.812,15.265h151.296C209.592,182.958,213.559,176.088,208.71,167.693z M157.395,114.259
				c0.132,0.147,0.241,0.261,0.34,0.384c1.765,2.205,1.774,4.542,0.499,6.961c-0.827,1.569-1.824,3.025-2.969,4.379
				c-0.336,0.397-0.657,0.803-1.028,1.258c-0.519-1.048-0.685-2.096-0.6-3.185c0.099-1.283,0.592-2.434,1.244-3.526
				c1.13-1.889,1.961-3.899,2.414-6.06C157.306,114.417,157.343,114.368,157.395,114.259z M154.414,108.717
				c2.396,1.854,2.897,3.795,2.343,6.237c-0.421,1.851-1.183,3.576-2.13,5.221c-0.334,0.581-0.645,1.174-1.029,1.874
				c-0.282-0.5-0.611-0.906-0.758-1.37c-0.489-1.546-0.57-3.1-0.006-4.669c0.813-2.258,1.515-4.549,1.534-6.986
				C154.37,108.938,154.394,108.853,154.414,108.717z M153.943,109.38c-0.107,1.977-0.574,3.869-1.227,5.726
				c-0.207,0.59-0.389,1.19-0.602,1.85c-0.737-0.602-1.225-1.294-1.477-2.125c-0.221-0.726-0.434-1.466-0.53-2.215
				c-0.062-0.487,0.063-1.005,0.15-1.503c0.42-2.408,0.709-4.819,0.267-7.257c-0.003-0.012,0.01-0.028,0.026-0.07
				c0.043,0.006,0.102-0.003,0.145,0.02C152.888,104.873,154.073,106.945,153.943,109.38z M150.065,109.966
				c-0.087,0.763-0.221,1.522-0.34,2.335c-0.948-0.562-1.613-1.322-2.06-2.266c-0.529-1.121-0.812-2.283-0.8-3.552
				c0.024-2.339-0.146-4.669-1.045-6.979c1.027,0.277,1.824,0.738,2.568,1.341c1.303,1.055,1.672,2.496,1.86,4.059
				C150.456,106.606,150.253,108.284,150.065,109.966z M101.17,99.667c1.261-1.044,2.722-1.347,4.331-1.226
				c1.41,0.106,2.77,0.409,4.105,0.803c-0.082-0.166-0.157-0.334-0.234-0.502c-1.142-0.34-2.305-0.603-3.512-0.669
				c-0.441-0.024-0.881-0.057-1.431-0.092c1.095-1.304,2.284-2.248,3.829-2.49c-0.218-0.933-0.37-1.903-0.449-2.908
				c-0.521-6.626,3.15-12.671,8.906-15.7c7.291-3.99,16.428-2.123,21.532,4.628c0.26,0.341,0.515,0.684,0.862,1.148
				c2.502-1.309,4.876-2.551,7.588-3.969c-2.057-0.668-3.791-1.23-5.673-1.841c0.24-0.81,0.448-1.511,0.729-2.454
				c3.346,1.044,6.601,2.061,10.009,3.125c-1.056,3.377-2.072,6.633-3.121,9.986c-0.85-0.268-1.552-0.489-2.425-0.764
				c0.543-1.833,1.066-3.607,1.692-5.727c-2.532,1.321-4.819,2.458-7.021,3.739c-0.259,0.15-0.213,1.135-0.05,1.65
				c1.043,3.29,1.032,6.68,0.153,9.795c0.212,0.035,0.41,0.07,0.591,0.128c1.815,0.567,3.219,1.566,3.902,3.457
				c0.63,1.744,0.876,3.541,0.963,5.369c0.045,0.952-0.004,1.908-0.012,2.903c-0.178-0.088-0.398-0.171-0.594-0.294
				c-1.669-1.044-2.661-2.57-3.012-4.481c-0.354-1.947-0.861-3.848-1.575-5.691c-0.108-0.281-0.253-0.561-0.409-0.854
				c-0.059,0.181-0.132,0.357-0.195,0.536c0.129,0.265,0.249,0.54,0.36,0.823c0.436,1.105,0.809,2.243,1.107,3.393
				c0.245,0.949,0.338,1.936,0.522,3.05c-0.433-0.165-0.817-0.27-1.164-0.448c-1.301-0.668-2.218-1.637-2.876-2.831
				c-1.559,2.239-3.665,4.128-6.251,5.418c-1.847,0.921-3.779,1.46-5.714,1.677c-0.518,0.226-0.7,0.62-0.682,1.37
				c0.056,2.309,0.018,4.619,0.018,7.141c2.458,0,4.594,0,6.864,0c0,0.934,0,1.759,0,2.751c-2.241,0-4.423,0-6.832,0
				c0,2.383,0,4.607,0,6.922c-1.011,0-1.794,0-2.812,0c0-2.264,0-4.491,0-6.863c-2.416,0-4.602,0-6.912,0c0-0.981,0-1.814,0-2.799
				c2.263,0,4.447,0,6.871,0c0-2.68,0.044-5.216-0.053-7.749c-0.014-0.318-0.729-0.801-1.18-0.886
				c-0.139-0.026-0.271-0.064-0.407-0.093c-0.098-0.02-0.193-0.045-0.291-0.066c-0.371-0.084-0.739-0.173-1.099-0.276
				c-0.151-0.043-0.301-0.092-0.451-0.14c-3.639-1.14-6.604-3.253-8.665-6.103c-1.353,0.621-2.76,0.817-4.277,0.524
				c-2.342-0.452-4.714-0.663-7.098-0.237c-0.012,0.001-0.026-0.013-0.094-0.048C99.948,100.984,100.462,100.251,101.17,99.667z
				 M96.744,103.871c1.026-1.143,2.345-1.56,3.819-1.732c1.819-0.212,3.609-0.029,5.405,0.219c0.688,0.094,1.375,0.192,2.122,0.297
				c-0.588,0.864-1.261,1.559-2.167,2.01c-1.216,0.605-2.494,0.873-3.856,0.859c-2.209-0.022-4.4,0.148-6.499,0.927
				c-0.065,0.023-0.137,0.032-0.263,0.06C95.571,105.471,96.064,104.63,96.744,103.871z M92.138,110.692
				c0.646-2.158,2.062-3.495,4.25-4.088c1.385-0.375,2.786-0.577,4.206-0.649c1.058-0.052,2.121,0.003,3.245,0.012
				c-0.407,0.888-0.997,1.666-1.806,2.254c-1.079,0.785-2.282,1.255-3.616,1.479c-1.17,0.196-2.318,0.545-3.454,0.901
				c-1.015,0.319-2,0.735-3.034,1.123C91.991,111.41,92.032,111.041,92.138,110.692z M91.774,112.517
				c1.097-0.745,2.266-1.33,3.546-1.666c1.613-0.422,3.231-0.812,4.848-1.216c0.042,0.044,0.082,0.087,0.124,0.132
				c-0.124,0.35-0.215,0.716-0.376,1.049c-0.732,1.51-1.874,2.585-3.432,3.237c-1.517,0.634-3.032,1.276-4.505,2.004
				c-0.845,0.418-1.604,1.015-2.487,1.588C89.602,115.587,89.967,113.743,91.774,112.517z M90.56,117.43
				c1.796-1.278,3.781-2.179,5.849-2.912c0.307-0.11,0.605-0.243,0.907-0.364c0.052,0.025,0.104,0.051,0.157,0.077
				c-0.137,0.542-0.215,1.109-0.423,1.623c-0.596,1.474-1.591,2.623-2.976,3.427c-2.093,1.214-4.101,2.538-5.678,4.416
				c-0.027,0.031-0.075,0.045-0.173,0.102c-0.068-0.323-0.161-0.615-0.189-0.915C87.814,120.576,88.685,118.764,90.56,117.43z
				 M88.658,124.036c1.502-1.754,3.339-3.078,5.315-4.232c0.435-0.253,0.854-0.536,1.279-0.805c0.062,0.02,0.125,0.04,0.188,0.06
				c-0.064,0.671-0.053,1.36-0.209,2.008c-0.375,1.549-1.297,2.735-2.511,3.771c-1.743,1.484-3.427,3.047-4.55,5.1
				c-0.025,0.049-0.076,0.085-0.12,0.132C87.068,128.242,87.235,125.696,88.658,124.036z M110.852,162.481
				c-1.23-0.353-2.097-1.149-2.78-2.203c-0.418-0.64-0.747-1.316-1.024-2.014c-0.091,0.108-0.175,0.226-0.268,0.33
				c0.056,0.159,0.098,0.32,0.156,0.479c0.162,0.442,0.424,0.849,0.641,1.271c-0.021,0.044-0.04,0.087-0.061,0.131
				c-0.458-0.114-0.932-0.187-1.371-0.351c-0.21-0.077-0.412-0.161-0.605-0.252c-5.824,5.411-14.407,6.149-21.149,1.387
				c-0.853-0.602-1.351-0.58-2.046,0.15c-1.592,1.672-3.253,3.279-5.036,5.062c1.737,1.738,3.249,3.248,4.854,4.854
				c-0.661,0.66-1.244,1.243-1.946,1.944c-1.585-1.583-3.128-3.127-4.831-4.829c-1.685,1.685-3.258,3.257-4.895,4.895
				c-0.716-0.716-1.27-1.269-1.987-1.988c1.602-1.602,3.175-3.177,4.853-4.854c-1.709-1.709-3.254-3.253-4.889-4.888
				c0.694-0.693,1.282-1.283,1.979-1.979c1.601,1.6,3.146,3.145,4.859,4.859c1.896-1.895,3.72-3.658,5.44-5.517
				c0.217-0.235,0.052-1.082-0.206-1.46c-4.631-6.801-4.23-14.818,1.095-21.048c1.713-2.005,3.832-3.466,6.147-4.395
				c0.062-0.475,0.188-0.929,0.41-1.323c1.056-1.875,2.415-3.447,3.982-4.875c0.64-0.583,1.288-1.155,1.989-1.785
				c0.275,0.928,0.398,1.801,0.197,2.672c-0.284,1.229-0.707,2.394-1.58,3.372c-0.254,0.284-0.494,0.578-0.732,0.873
				c0.194-0.021,0.388-0.055,0.583-0.07c0.211-0.26,0.42-0.522,0.64-0.775c0.212-0.246,0.404-0.507,0.663-0.834
				c0.156,0.409,0.314,0.731,0.402,1.074c0.044,0.167,0.075,0.333,0.105,0.498c3.628,0.109,7.297,1.373,10.404,3.852
				c5.941,4.739,7.672,13.409,4.437,20.118c0.29,0.457,0.546,0.941,0.737,1.477c0.811,2.276,1.811,4.459,3.341,6.36
				c0.017,0.02,0.011,0.057,0.027,0.158C112.494,162.906,111.671,162.717,110.852,162.481z M117.962,164.357
				c-0.206,0.018-0.417-0.041-0.625-0.05c-1.935-0.093-3.218-1.235-4.264-2.707c-1.175-1.657-2.022-3.488-2.687-5.405
				c-0.135-0.39-0.303-0.77-0.457-1.153c0.022-0.048,0.044-0.096,0.066-0.144c0.579,0.153,1.183,0.246,1.733,0.471
				c1.536,0.628,2.652,1.726,3.479,3.169c0.974,1.703,2.036,3.354,3.484,4.712c0.301,0.284,0.617,0.55,1.026,0.913
				C119.064,164.237,118.516,164.312,117.962,164.357z M123.905,164.906c-1.697,0.16-3.186-0.31-4.471-1.513
				c-1.697-1.59-2.955-3.49-4.135-5.461c-0.166-0.276-0.348-0.543-0.548-0.853c0.857-0.219,1.636-0.123,2.388,0.145
				c1.303,0.464,2.427,1.167,3.338,2.257c1.547,1.854,3.195,3.615,5.363,4.789c0.004,0.052,0.008,0.104,0.01,0.156
				C125.203,164.59,124.563,164.843,123.905,164.906z M130.851,164.237c-1.213,0.344-2.452,0.604-3.707,0.186
				c-0.319-0.107-0.621-0.274-0.922-0.431c-1.883-0.976-3.358-2.438-4.759-3.989c-0.519-0.576-1.03-1.157-1.607-1.807
				c0.95-0.239,1.81-0.385,2.67-0.19c1.312,0.295,2.521,0.8,3.553,1.719c1.537,1.369,3.236,2.516,5.112,3.382
				c0.283,0.131,0.583,0.226,0.991,0.382C131.688,163.774,131.298,164.109,130.851,164.237z M133.228,163.293
				c-1.339-0.259-2.578-0.784-3.694-1.562c-1.479-1.029-2.933-2.101-4.471-3.206c0.924-0.551,1.814-0.671,2.709-0.687
				c1.188-0.021,2.311,0.283,3.349,0.871c1.918,1.084,3.868,2.094,6.025,2.631c0.3,0.075,0.599,0.147,0.899,0.221
				c0.005,0.046,0.011,0.09,0.017,0.135C136.637,162.769,135.147,163.666,133.228,163.293z M177.605,145.062
				c-0.851-0.268-1.552-0.49-2.426-0.764c0.541-1.834,1.064-3.607,1.69-5.726c-2.531,1.321-4.817,2.458-7.021,3.737
				c-0.257,0.15-0.212,1.135-0.049,1.651c2.528,7.971-1.052,16.561-8.489,20.272c-6.872,3.43-14.926,1.78-19.906-3.634
				c-1.15,0.589-2.456,0.753-3.952,0.386c-1.992-0.487-3.851-1.3-5.613-2.341c-0.457-0.27-0.935-0.511-1.531-0.835
				c0.514-0.278,0.916-0.569,1.365-0.724c1.494-0.517,2.997-0.605,4.53-0.083c1.079,0.369,2.158,0.739,3.259,1.028
				c-0.101-0.163-0.212-0.314-0.308-0.481c-0.009-0.016-0.016-0.032-0.024-0.047c-0.675-0.183-1.345-0.384-2.01-0.617
				c-0.548-0.191-1.103-0.359-1.75-0.567c0.354-0.313,0.623-0.623,0.954-0.835c0.502-0.322,1.019-0.57,1.55-0.753
				c-2.469-7.09,0.073-15.216,6.499-19.506c2.954-1.973,6.294-2.888,9.59-2.85c-0.256-0.856-0.359-1.675-0.185-2.482
				c0.293-1.354,0.844-2.582,1.784-3.66c1.54-1.763,2.857-3.69,3.675-5.916c0.049-0.009,0.098-0.021,0.146-0.032
				c0.207,0.434,0.45,0.856,0.614,1.307c0.343,0.946,0.595,1.92,0.383,2.935c-0.087,0.419-0.226,0.837-0.408,1.225
				c-0.904,1.917-2.3,3.45-3.855,4.853c-0.643,0.578-1.287,1.159-1.973,1.775c0.205,0.004,0.41,0.004,0.615,0.017
				c0.146-0.148,0.28-0.301,0.443-0.439c1.863-1.578,3.677-3.222,4.894-5.522c0.411,0.895,0.639,1.726,0.637,2.61
				c-0.003,1.341-0.352,2.603-1.263,3.593c-0.173,0.188-0.354,0.368-0.532,0.55c0.14,0.045,0.28,0.084,0.418,0.133
				c0.173-0.19,0.351-0.388,0.549-0.603c0.065,0.297,0.111,0.586,0.147,0.872c2.745,1.107,5.239,2.94,7.157,5.477
				c0.259,0.341,0.515,0.685,0.862,1.149c2.501-1.31,4.876-2.552,7.587-3.969c-2.057-0.667-3.789-1.231-5.673-1.842
				c0.24-0.809,0.449-1.511,0.729-2.453c3.346,1.044,6.602,2.06,10.01,3.124C179.669,138.453,178.652,141.708,177.605,145.062z"/>
			<path d="M154.693,140.852c-0.912,0.443-1.876,0.781-2.814,1.171c-0.354,0.147-0.701,0.305-1.146,0.5
				c0.062-1.489,0.677-2.614,1.487-3.653c0.65-0.833,1.547-1.356,2.429-1.894c0.824-0.503,1.639-1.018,2.413-1.587
				c-0.167-0.039-0.331-0.091-0.502-0.125c-0.285,0.205-0.575,0.406-0.878,0.59c-0.931,0.568-1.85,1.155-2.836,1.774
				c-0.146-0.767-0.134-1.465,0.086-2.141c0.053-0.163,0.12-0.313,0.181-0.471c-7.584,0.319-13.577,6.526-13.559,14.207
				c0.004,1.547,0.262,3.031,0.719,4.426c0.274-0.495,0.675-0.83,1.075-1.139c1.118-0.865,2.4-1.368,3.815-1.392
				c2.58-0.044,5.152-0.107,7.701-1.07c-0.281,1.075-0.785,1.893-1.431,2.662c-1.069,1.277-2.514,1.596-4.055,1.767
				c-1.717,0.192-3.409-0.005-5.104-0.227c-0.61-0.08-1.227-0.159-1.872-0.242c0.048,0.132,0.093,0.264,0.145,0.394
				c0.179,0.015,0.359,0.034,0.543,0.063c2.271,0.364,4.553,0.746,6.869,0.35c0.226-0.04,0.449-0.079,0.675-0.119
				c0.026,0.034,0.055,0.069,0.081,0.103c-0.304,0.43-0.585,0.877-0.916,1.285c-1.204,1.489-2.768,2.163-4.688,2.08
				c-0.14-0.005-0.276-0.028-0.415-0.039c0.12,0.15,0.25,0.293,0.376,0.439c0.191,0.011,0.376,0.022,0.575,0.035
				c-0.016,0.055-0.014,0.118-0.044,0.155c-0.058,0.071-0.121,0.131-0.18,0.199c2.579,2.749,6.227,4.481,10.289,4.501
				c7.839,0.038,14.316-6.435,14.296-14.284c-0.017-5.708-3.352-10.566-8.19-12.824c-0.222,0.631-0.575,1.229-1.09,1.791
				C157.6,139.364,156.163,140.141,154.693,140.852z M153.264,149.394c-1.634,0.808-3.406,1.11-5.211,1.212
				c-1.222,0.069-2.445,0.1-3.742,0.149c0.06-0.174,0.08-0.302,0.141-0.407c0.484-0.834,1.041-1.611,1.878-2.132
				c0.942-0.588,1.922-1.047,3.048-1.234c2.352-0.389,4.648-0.985,6.766-2.201c0.035,0.071,0.062,0.099,0.059,0.122
				C155.917,146.854,155.104,148.481,153.264,149.394z M156.551,143.961c-1.407,1.046-3.018,1.637-4.682,2.077
				c-1.255,0.331-2.539,0.55-3.812,0.816c-0.039,0.008-0.083-0.011-0.159-0.022c0.072-0.698,0.404-1.292,0.767-1.837
				c0.601-0.901,1.385-1.657,2.35-2.158c0.698-0.362,1.453-0.622,2.193-0.894c1.912-0.704,3.673-1.672,5.269-2.939
				c0.021-0.016,0.055-0.016,0.19-0.051C158.562,140.918,158.231,142.71,156.551,143.961z"/>
			<path d="M102.623,156.672c-0.616-1.783-0.836-3.611-0.92-5.47c-0.04-0.876,0.005-1.756,0.011-2.682
				c0.808,0.341,1.512,0.872,2.073,1.552c0.971,1.178,1.537,2.542,1.754,4.067c0.057,0.404,0.143,0.805,0.24,1.204
				c0.099-0.15,0.198-0.301,0.291-0.454c-0.21-0.905-0.413-1.82-0.629-2.758c0.675,0.033,1.199,0.3,1.684,0.601
				c2.004-5.167,0.886-11.242-3.305-15.18c-2.69-2.53-6.1-3.807-9.499-3.872c-0.123,0.463-0.289,0.921-0.508,1.372
				c-0.272,0.563-0.589,1.107-0.897,1.652c-0.951,1.678-1.631,3.458-2.038,5.343c-0.019,0.081-0.063,0.155-0.123,0.291
				c-0.172-0.209-0.316-0.374-0.452-0.549c-1.776-2.308-1.56-4.686-0.229-7.092c0.1-0.181,0.211-0.354,0.314-0.532
				c-0.187,0.05-0.375,0.09-0.56,0.148c-0.083,0.153-0.176,0.302-0.256,0.458c-0.251,0.488-0.445,1.004-0.683,1.545
				c-0.277-0.34-0.524-0.81-0.722-1.337c-1.496,0.701-2.889,1.67-4.087,2.936c-5.334,5.63-5.211,14.515,0.272,19.757
				c5.319,5.084,13.721,5.198,19.033,0.468C103.078,157.713,102.817,157.232,102.623,156.672z M93.742,147.907
				c-1.879-1.487-2.86-3.277-2.458-5.637c0.365-2.134,1.237-4.081,2.304-5.95c0.317-0.555,0.616-1.121,0.977-1.782
				c0.155,0.255,0.281,0.44,0.384,0.637c0.906,1.74,0.976,3.521,0.387,5.385c-0.509,1.62-0.951,3.264-1.342,4.915
				C93.812,146.234,93.825,147.039,93.742,147.907z M97.601,152.889c-0.191-0.118-0.37-0.229-0.551-0.338
				c-2.486-1.5-3.087-3.754-2.76-6.493c0.237-1.986,0.931-3.82,1.521-5.696c0.062-0.199,0.125-0.398,0.192-0.596
				c0.007-0.026,0.037-0.045,0.079-0.092c0.9,0.722,1.396,1.684,1.669,2.775c0.122,0.488,0.272,0.982,0.292,1.478
				c0.021,0.542-0.063,1.095-0.156,1.633c-0.415,2.383-0.711,4.767-0.229,7.177C97.662,152.761,97.638,152.79,97.601,152.889z
				 M99.623,155.61c-1.188-1.046-1.553-2.404-1.717-3.9c-0.204-1.853,0.018-3.674,0.262-5.5c0.083-0.63,0.169-1.259,0.254-1.889
				c0.047-0.028,0.096-0.057,0.145-0.084c0.513,0.544,1.115,1.029,1.52,1.644c0.78,1.19,1.218,2.503,1.201,3.97
				c-0.026,2.371,0.121,4.729,0.955,6.987c0.019,0.051,0.024,0.108,0.052,0.242C101.234,156.785,100.392,156.287,99.623,155.61z"/>
			<path fill="#5D5D5D" d="M156.56,135.264c0.171,0.034,0.335,0.086,0.502,0.125c0.622-0.455,1.22-0.941,1.766-1.5
				c0.177-0.182,0.351-0.371,0.53-0.569c-0.138-0.049-0.278-0.087-0.418-0.133C158.203,133.942,157.419,134.647,156.56,135.264z"/>
			<path fill="#5D5D5D" d="M143.073,158.564c-0.126-0.146-0.256-0.289-0.376-0.439c-1.217-0.085-2.401-0.309-3.566-0.624
				c0.009,0.015,0.016,0.031,0.024,0.047c0.096,0.167,0.207,0.319,0.308,0.481c0.876,0.231,1.765,0.416,2.682,0.479
				C142.449,158.53,142.763,158.547,143.073,158.564z"/>
			<path fill="#5D5D5D" d="M111.951,85.567c0.057-0.119,0.109-0.238,0.169-0.354C112.059,85.328,112.009,85.449,111.951,85.567z"/>
			<path fill="#5D5D5D" d="M120.122,107.804c-0.151-0.043-0.301-0.093-0.451-0.14C119.821,107.712,119.971,107.761,120.122,107.804z
				"/>
			<path fill="#5D5D5D" d="M121.512,108.147c-0.098-0.021-0.193-0.044-0.291-0.066C121.318,108.102,121.414,108.127,121.512,108.147
				z"/>
			<path fill="#5D5D5D" d="M110.819,94.097c-0.139-0.792-0.226-1.6-0.228-2.431c-0.004-1.931,0.374-3.767,1.059-5.443
				c-0.739,1.741-1.136,3.654-1.081,5.657C110.59,92.637,110.686,93.374,110.819,94.097z"/>
			<path fill="#5D5D5D" d="M110.969,94.854c-0.015-0.066-0.036-0.129-0.05-0.194C110.934,94.725,110.953,94.788,110.969,94.854z"/>
		</g>
	</g>
</g>
</svg>
