<?xml version="1.0" encoding="utf-8"?>
<!-- Generator: Adobe Illustrator 16.0.0, SVG Export Plug-In . SVG Version: 6.00 Build 0)  -->
<!DOCTYPE svg PUBLIC "-//W3C//DTD SVG 1.1//EN" "http://www.w3.org/Graphics/SVG/1.1/DTD/svg11.dtd">
<svg version="1.1" xmlns="http://www.w3.org/2000/svg" xmlns:xlink="http://www.w3.org/1999/xlink" x="0px" y="0px"
	 width="255.121px" height="255.12px" viewBox="0 0 255.121 255.12" enable-background="new 0 0 255.121 255.12"
	 xml:space="preserve">
<g id="Layer_1">
</g>
<g id="Layer_2">
	<g>
		<g>
			<g>
				<path d="M127.019,176.898c-27.308,0-49.523-22.216-49.523-49.524c0-27.308,22.216-49.523,49.523-49.523
					c27.307,0,49.522,22.216,49.522,49.523C176.542,154.682,154.326,176.898,127.019,176.898z M127.019,85.469
					c-23.106,0-41.905,18.798-41.905,41.905c0,23.107,18.799,41.903,41.905,41.903c23.105,0,41.904-18.796,41.904-41.903
					C168.923,104.268,150.125,85.469,127.019,85.469z M125.727,159.221c-15.888,0-29.311-13.422-29.311-29.311
					c0-0.427,0.01-0.85,0.028-1.271c-0.019-0.42-0.028-0.843-0.028-1.27c0-4.9,1.279-9.771,3.701-14.105
					c0.21-0.476,0.446-0.97,0.733-1.535l0.203-0.391c0.589-1.114,1.258-2.204,1.987-3.239l0.256-0.357
					c0.739-1.015,1.551-1.995,2.411-2.908l0.308-0.324c0.485-0.502,0.93-0.935,1.355-1.322c0.422-0.383,0.878-0.77,1.434-1.214
					l0.359-0.285c0.562-0.435,1.045-0.79,1.521-1.112l0.133-0.089c0.424-0.284,0.899-0.583,1.464-0.917l0.4-0.233
					c0.606-0.346,1.152-0.636,1.671-0.889l0.151-0.073c0.479-0.229,1.001-0.458,1.591-0.699c0.146-0.061,0.295-0.121,0.445-0.178
					c0.663-0.261,1.236-0.466,1.797-0.642l0.076-0.023c0.537-0.168,1.119-0.328,1.78-0.49c0.155-0.038,0.313-0.075,0.473-0.11
					c0.707-0.16,1.312-0.279,1.901-0.372l0.313-0.045c0.498-0.071,1.037-0.13,1.637-0.184c0.146-0.014,0.318-0.026,0.491-0.038
					c0.748-0.053,1.379-0.077,1.988-0.077c15.889,0,29.312,13.424,29.312,29.311c0,0.589-0.022,1.173-0.058,1.754
					c-0.009,0.126-0.02,0.259-0.03,0.393l-0.01,0.113c-0.033,0.427-0.076,0.853-0.129,1.278c-0.021,0.162-0.041,0.328-0.063,0.492
					c-0.072,0.506-0.156,1.006-0.254,1.5l-0.029,0.164c-0.126,0.616-0.265,1.201-0.421,1.779l-0.041,0.143
					c-0.133,0.49-0.298,1.023-0.475,1.55l-0.086,0.247c-0.006,0.018-0.012,0.034-0.018,0.053
					C152.497,148.537,140.121,159.221,125.727,159.221z M114.871,106.944c-0.354,0.245-0.697,0.503-1.037,0.766l-0.267,0.211
					c-0.363,0.292-0.724,0.591-1.068,0.905c-0.351,0.318-0.683,0.648-1.01,0.985l-0.229,0.241c-0.645,0.684-1.25,1.414-1.802,2.173
					l-0.192,0.269c-0.54,0.766-1.036,1.576-1.475,2.406l-0.151,0.292c-0.212,0.415-0.419,0.839-0.605,1.276l-0.188,0.377
					c-1.838,3.233-2.811,6.874-2.811,10.524c0,0.362,0.011,0.719,0.029,1.077l0.01,0.193l-0.01,0.194
					c-0.019,0.357-0.029,0.717-0.029,1.077c0,11.758,9.935,21.692,21.692,21.692c10.584,0,20.021-8.256,21.486-18.794l0.053-0.391
					l0.312-0.855c0.13-0.383,0.251-0.774,0.358-1.171l0.036-0.123c0.101-0.375,0.203-0.806,0.292-1.243l0.024-0.14
					c0.071-0.361,0.133-0.727,0.185-1.096l0.047-0.359c0.039-0.316,0.071-0.628,0.096-0.942l0.028-0.363
					c0.027-0.433,0.045-0.861,0.045-1.294c0-11.757-9.934-21.692-21.692-21.692c-0.429,0-0.893,0.02-1.46,0.06l-0.339,0.025
					c-0.582,0.051-1.034,0.103-1.447,0.168l-0.14,0.021c-0.376,0.063-0.783,0.145-1.267,0.255l-0.344,0.081
					c-0.46,0.111-0.913,0.231-1.357,0.372l-0.104,0.034c-0.417,0.134-0.826,0.286-1.231,0.444l-0.323,0.13
					c-0.434,0.178-0.861,0.361-1.278,0.565l-0.128,0.061c-0.382,0.189-0.754,0.395-1.123,0.604l-0.298,0.174
					c-0.401,0.237-0.798,0.48-1.183,0.741L114.871,106.944z"/>
			</g>
			<g>
				<path d="M124.835,99.43c0.105-0.01,0.214-0.018,0.32-0.025c0.609-0.043,1.223-0.075,1.842-0.075c0.55,0,1.095,0.023,1.639,0.059
					c0.125,0.01,0.251,0.02,0.376,0.03c0.495,0.042,0.985,0.095,1.473,0.162c0.04,0.006,0.081,0.01,0.12,0.016
					c1.158,0.17,2.291,0.423,3.396,0.747c0.002,0,0.004,0.002,0.005,0.002V43.554H123v56.101h0.001
					C123.606,99.557,124.218,99.483,124.835,99.43z"/>
			</g>
			<g>
				<path d="M125.727,155.413c-0.92,0-1.83-0.055-2.727-0.154v58.227h11.005v-59.497C131.4,154.905,128.615,155.413,125.727,155.413
					z"/>
			</g>
			<g>
				<path d="M100.226,129.911c0-0.462,0.015-0.923,0.04-1.381c-0.018-0.385-0.04-0.771-0.04-1.16c0-1.481,0.139-2.935,0.392-4.354
					H43.53v11.006h57.044C100.348,132.682,100.226,131.309,100.226,129.911z"/>
			</g>
			<g>
				<path d="M152.426,123.017v0.002c0.043,0.601,0.073,1.203,0.073,1.812c0,0.419-0.012,0.833-0.032,1.247
					c-0.009,0.18-0.026,0.359-0.039,0.539c-0.017,0.227-0.031,0.454-0.054,0.68c-0.023,0.239-0.057,0.474-0.087,0.713
					c-0.021,0.158-0.038,0.318-0.062,0.476c-0.04,0.276-0.091,0.553-0.14,0.828c-0.021,0.11-0.04,0.223-0.062,0.333
					c-0.061,0.307-0.129,0.61-0.2,0.913c-0.018,0.073-0.034,0.146-0.053,0.219c-0.081,0.33-0.17,0.656-0.264,0.982
					c-0.012,0.04-0.023,0.081-0.035,0.123c-0.103,0.348-0.214,0.691-0.33,1.033c-0.006,0.016-0.011,0.029-0.016,0.045
					c-0.045,0.128-0.095,0.254-0.142,0.383c-0.031,0.228-0.065,0.455-0.103,0.68h62.594v-11.006H152.426z"/>
			</g>
			<g>
				<path d="M193.35,192.605l20.084-0.835l-25.408-25.408l-14.449,0.601l-25.297-25.297c-1.746,3.291-4.191,6.173-7.13,8.437
					l24.18,24.179l-0.141,14.917l25.408,25.408l0.183-19.431l-5.812-5.811l2.571-2.57L193.35,192.605z"/>
			</g>
			<g>
				<path d="M111.396,104.783L81.1,74.487l20.516-3.798L51.897,53.065l17.624,49.717l3.798-20.513l31.018,31.018
					C106.054,109.976,108.475,107.072,111.396,104.783z"/>
			</g>
			<g>
				<path d="M113.308,152.097c-3.229-1.837-6.033-4.355-8.21-7.354l-21.756,21.755l-14.918-0.14l-25.407,25.408l19.43,0.182
					l5.812-5.811l2.571,2.572l-5.812,5.811l0.835,20.083l25.409-25.408l-0.603-14.449L113.308,152.097z"/>
			</g>
			<g>
				<path d="M154.839,70.69l20.515,3.796l-31.416,31.415c0.001,0.002,0.002,0.002,0.003,0.004c0.692,0.622,1.352,1.28,1.975,1.971
					c0.008,0.01,0.016,0.02,0.024,0.03c0.287,0.318,0.565,0.646,0.836,0.979c0.058,0.071,0.114,0.146,0.172,0.217
					c0.217,0.274,0.431,0.553,0.638,0.835c0.073,0.101,0.146,0.202,0.217,0.304c0.186,0.261,0.367,0.527,0.543,0.796
					c0.075,0.114,0.15,0.229,0.223,0.345c0.168,0.265,0.331,0.536,0.49,0.808c0.068,0.119,0.139,0.235,0.204,0.354
					c0.164,0.292,0.321,0.589,0.474,0.889c0.051,0.099,0.104,0.198,0.155,0.298c0.197,0.399,0.387,0.804,0.563,1.217l32.682-32.681
					l3.798,20.515l17.624-49.719L154.839,70.69z"/>
			</g>
		</g>
		<g>
			<g>
				<path d="M127.018,95.571c-17.971,0-32.539,14.567-32.539,32.538c0,17.971,14.568,32.539,32.539,32.539
					c17.972,0,32.541-14.567,32.541-32.539C159.559,110.138,144.99,95.571,127.018,95.571z M143.907,131.783
					c-2.618,1.86-5.624,2.793-8.697,3.482c-4.029,0.903-8.115,1.562-12.123,2.544c-6.747,1.655-9.582,5.991-8.655,12.898
					c0.051,0.389,0.104,0.774,0.157,1.164c-1.654-4.062-2.75-8.174-1.218-12.533c0.153-0.44,0.31-0.911,0.311-1.367
					c0.017-8.776,0.013-17.552,0.01-26.329c0-0.146-0.025-0.29-0.05-0.549c-0.891,0-1.779,0-2.666,0
					c-0.04-0.091-0.081-0.186-0.121-0.279c0.688-0.318,1.353-0.695,2.065-0.934c0.585-0.198,0.806-0.484,0.789-1.102
					c-0.041-1.454-0.013-2.908-0.013-4.431c0.972,0,1.832,0,2.823,0c0,1.444,0,2.888,0,4.458c1.712-0.233,3.28-0.488,4.857-0.65
					c5.328-0.543,10.598-0.373,15.716,1.396c6.786,2.345,10.479,7.461,10.629,14.635C147.786,127.4,146.522,129.93,143.907,131.783z
					"/>
			</g>
			<g>
				<path d="M116.677,111.61c0,7.92,0,15.835,0,23.968c1.824-1.262,3.498-2.369,5.113-3.552c2.804-2.05,4.172-4.837,4.408-8.312
					C126.638,117.19,122.489,112.74,116.677,111.61z"/>
			</g>
		</g>
		<g>
			<circle cx="43.669" cy="128.466" r="8.607"/>
		</g>
		<g>
			<circle cx="128.468" cy="43.671" r="8.607"/>
		</g>
		<g>
			<circle cx="213.548" cy="128.466" r="8.607"/>
		</g>
		<g>
			<circle cx="128.468" cy="213.545" r="8.607"/>
		</g>
		<g>
			<ellipse cx="53.474" cy="128.798" rx="2.751" ry="10.583"/>
		</g>
		<g>
			<ellipse cx="203.743" cy="128.798" rx="2.751" ry="10.583"/>
		</g>
		<g>
			<ellipse cx="128.628" cy="53.26" rx="10.583" ry="2.752"/>
		</g>
		<g>
			<ellipse cx="128.628" cy="203.953" rx="10.583" ry="2.751"/>
		</g>
	</g>
</g>
</svg>
