<?xml version="1.0" encoding="utf-8"?>
<!-- Generator: Adobe Illustrator 16.0.0, SVG Export Plug-In . SVG Version: 6.00 Build 0)  -->
<!DOCTYPE svg PUBLIC "-//W3C//DTD SVG 1.1//EN" "http://www.w3.org/Graphics/SVG/1.1/DTD/svg11.dtd">
<svg version="1.1" xmlns="http://www.w3.org/2000/svg" xmlns:xlink="http://www.w3.org/1999/xlink" x="0px" y="0px"
	 width="255.12px" height="255.12px" viewBox="0 0 255.12 255.12" enable-background="new 0 0 255.12 255.12" xml:space="preserve">
<g id="Layer_1">
</g>
<g id="Layer_2">
	<g>
		<g>
			<path d="M67.956,147.566L67.956,147.566c-5.603,0-9.096-5.602-11.183-8.949c-0.183-0.294-0.385-0.617-0.575-0.912
				c-1.331,0.493-2.626,0.742-3.869,0.742c-6.799,0-10.002-7.174-11.542-10.622c-0.131-0.295-0.279-0.627-0.412-0.908
				c-15.882-0.109-18.876-15.634-19.416-20.404l-0.202-1.781l1.75-0.389c7.302-1.624,13.893-2.447,19.592-2.447
				c19.769,0,23.217,9.857,23.355,10.277l0.091,0.28l0.007,0.296c0.003,0.116,0.331,11.864,6.152,32.005l0.555,1.92l-1.922,0.55
				C69.545,147.451,68.743,147.566,67.956,147.566z M57.117,132.884l1.005,0.851c0.651,0.552,1.231,1.483,2.035,2.772
				c1.625,2.606,4.018,6.445,7.053,7.003c-4.853-17.485-5.536-28.125-5.628-30.284c-0.577-1.157-4.371-7.344-19.48-7.344
				c-4.943,0-10.632,0.661-16.932,1.966c2.152,13.069,10.472,15.082,15.378,15.082c0.242,0,0.438-0.005,0.579-0.009l0.256-0.005
				c1.582,0,2.165,1.306,3.047,3.283c1.784,3.997,4.013,8.26,7.9,8.26c1.088,0,2.303-0.332,3.61-0.986L57.117,132.884z"/>
		</g>
		<g>
			<path d="M186.923,150.343c-0.736,0-1.486-0.1-2.232-0.299l-1.941-0.516l0.532-1.937c5.546-20.25,5.715-32.003,5.716-32.12
				l0.003-0.294l0.087-0.283c0.137-0.438,3.581-10.724,24.384-10.724c5.416,0,11.621,0.701,18.442,2.084l1.766,0.357l-0.178,1.793
				c-0.479,4.813-3.27,20.389-19.132,20.763c-0.129,0.285-0.274,0.623-0.403,0.922c-1.509,3.517-4.649,10.835-11.566,10.836h-0.001
				c-1.188,0-2.427-0.226-3.701-0.672c-0.186,0.3-0.386,0.63-0.567,0.931C196.067,144.612,192.612,150.343,186.923,150.343z
				 M192.976,115.903c-0.063,2.176-0.606,12.819-5.212,30.366c3.026-0.627,5.361-4.502,6.952-7.141
				c0.786-1.303,1.352-2.244,1.995-2.807l0.988-0.866l1.187,0.567c1.272,0.609,2.454,0.917,3.514,0.917
				c3.958,0,6.154-4.347,7.902-8.421c0.854-1.988,1.417-3.301,2.992-3.332l0.105-0.001l0.386,0.002
				c11.366,0,14.6-9.662,15.517-15.381c-5.843-1.094-11.16-1.649-15.829-1.649C197.497,108.159,193.584,114.645,192.976,115.903z"/>
		</g>
		<g>
			<g>
				<path fill="none" d="M125.482,89.076c12.51,0,24.671,1.286,36.403,3.808c0.848-6,2.333-23.754-7.157-35.356
					c-5.802-7.078-14.683-10.736-26.495-10.855v0.02c-0.359-0.01-0.708-0.02-1.057-0.03c-11.791-0.239-20.813,3.12-26.834,10.018
					c-9.997,11.454-8.901,29.565-8.252,35.357C101.579,90.352,112.913,89.076,125.482,89.076z"/>
			</g>
			<g>
				<path fill="none" d="M134.918,191.172c1.322,0,2.399,1.075,2.399,2.397v10.677l-0.739-0.406
					c-1.762-0.968-2.354-0.985-3.54-0.936l-0.519,0.021v-6.958h-1.329v0.186c0,2.319-1.758,2.319-2.419,2.319
					c-0.662,0-2.419,0-2.419-2.319v-0.186h-1.33v6.913l-0.473,0.024c-1.294,0.065-2.308,0.17-3.567,0.927l-0.755,0.453v-10.715
					c0-1.322,1.076-2.397,2.398-2.397h3.728v-3.216c-7.631,0.441-14.859,2.977-21.106,7.4
					c10.706,12.311,19.997,19.916,22.439,21.302c2.631-1.485,13.018-8.503,24.551-21.312c-6.225-4.415-13.445-6.941-21.046-7.388
					v3.214H134.918z"/>
			</g>
			<g>
				<rect x="123.162" y="115.252" width="9.928" height="4.413"/>
			</g>
			<g>
				<path d="M126.383,156.923c0.156-1.999,1.759-2.023,2.389-2.023c0.629,0,2.233,0.024,2.389,2.023h1.36v-6.275
					c-1.169-0.284-2.34-0.562-3.516-0.814c-1.255-0.27-2.623-0.085-3.98,0.142v6.948H126.383z"/>
			</g>
			<g>
				<circle cx="122.093" cy="131.937" r="1.931"/>
			</g>
			<g>
				<circle cx="116.716" cy="132.798" r="1.586"/>
			</g>
			<g>
				<path d="M125.024,181.472h1.329v-0.083c0-2.319,1.757-2.319,2.419-2.319c0.661,0,2.419,0,2.419,2.319v0.083h1.33l-0.001-9.827
					h-1.329v0.339c0,2.319-1.758,2.319-2.419,2.319c-0.662,0-2.419,0-2.419-2.319v-0.339h-1.33L125.024,181.472z"/>
			</g>
			<g>
				<path d="M192.707,102.842c-6.409-2.821-12.989-5.203-19.727-7.167c1.047-6.808,3.738-31.479-9.34-47.458
					c-7.695-9.4-19.478-14.215-35.037-14.434v-0.01c-16.248-0.618-28.658,3.848-36.882,13.277
					C78.034,62.721,80.048,87.74,80.875,94.379c-11.225,2.701-18.033,5.482-18.581,5.701l-1.255,0.519l0.03,1.366
					c0.658,35.107,17.644,65.221,31.778,84.31c15.032,20.295,31.639,34.529,34.918,34.529l0.438-0.01l0.329-0.12
					c1.476-0.538,16.547-9.688,32.147-29.097c13.776-17.125,30.712-46.092,33.214-86.792l0.08-1.386L192.707,102.842z
					 M100.342,56.68c6.021-6.897,15.043-10.257,26.834-10.018c0.35,0.01,0.698,0.02,1.057,0.03v-0.02
					c11.812,0.12,20.693,3.778,26.495,10.855c9.489,11.603,8.005,29.356,7.157,35.356c-11.732-2.522-23.893-3.808-36.403-3.808
					c-12.57,0-23.904,1.276-33.393,2.96C91.441,86.245,90.345,68.133,100.342,56.68z M151.773,124.163v10.308
					c0,0.657-1.539,1.189-3.438,1.189h-40.42c-1.899,0-3.438-0.532-3.438-1.189v-10.308c0-0.267,0.258-0.514,0.689-0.712v-16.648
					c0-1.045,0.684-1.892,1.528-1.892h42.859c0.843,0,1.527,0.847,1.527,1.892v16.648
					C151.514,123.649,151.773,123.896,151.773,124.163z M85.301,130.061l-1.762,3.222l-1.763-3.222l-3.221-1.762l3.221-1.762
					l1.763-3.223l1.762,3.223l3.222,1.762L85.301,130.061z M96.918,165.312l-1.542,2.819l-1.542-2.819l-2.819-1.542l2.819-1.542
					l1.542-2.819l1.542,2.819l2.819,1.542L96.918,165.312z M155.229,147.304c-0.727-1.013-1.511-1.435-2.763-1.248
					c-4.443,0.663-8.897,1.255-13.345,1.883c-0.383,0.054-0.755,0.169-1.132,0.256c-0.012,0.139-0.024,0.278-0.036,0.417
					c2.615,0.603,5.248,1.14,7.839,1.833c1.67,0.446,2.779,0.09,3.609-1.498c0.632-1.208,2.809-1.706,4.313-1.199
					c0.999,0.336,1.708,1.617,1.411,3.108c-0.139,0.697-0.724,1.444-1.318,1.879c-0.945,0.693-1.489,1.349-0.864,2.507
					c0.064,0.118,0.076,0.264,0.114,0.396c0.513,1.776,0.046,3.249-1.218,3.833c-1.297,0.6-3.063-0.122-3.924-1.676
					c-0.281-0.508-0.536-1.115-0.536-1.679c-0.001-1.389-0.793-1.828-1.976-2.127c-2.702-0.683-5.392-1.417-8.086-2.127v7.458
					c0,1.322-1.076,2.397-2.399,2.397h-3.727v5.131h3.727c1.322,0,2.399,1.075,2.399,2.397v14.624c0,1.322-1.076,2.397-2.399,2.397
					h-3.727v1.69c7.601,0.447,14.821,2.973,21.046,7.388c-11.534,12.809-21.92,19.826-24.551,21.312
					c-2.442-1.386-11.733-8.991-22.439-21.302c6.248-4.423,13.476-6.959,21.106-7.4v-1.688h-3.728c-1.322,0-2.398-1.075-2.398-2.397
					v-14.624c0-1.322,1.076-2.397,2.398-2.397h3.728v-5.131h-3.728c-1.322,0-2.398-1.075-2.398-2.397v-8.605
					c-3.464,0.519-6.925,1.065-10.391,1.585c-2.106,0.317-2.308,0.405-2.59,2.637c-0.196,1.542-1.041,2.259-2.44,2.547
					c-2.071,0.426-3.647-1.096-3.294-3.184c0.015-0.09,0.031-0.185,0.071-0.265c0.819-1.647,0.702-2.949-0.915-4.207
					c-0.561-0.437-0.633-1.855-0.488-2.753c0.172-1.061,1.155-1.581,2.253-1.717c1.893-0.233,3.238,0.455,3.988,2.174
					c0.483,1.108,1.072,1.573,2.418,1.347c3.239-0.544,6.516-0.864,9.777-1.275c0.005-0.125,0.011-0.251,0.016-0.377
					c-3.194-0.776-6.388-1.551-9.581-2.328c-1.825-0.444-3.684-0.79-5.465-1.37c-1.524-0.497-2.533,0.029-3.227,1.259
					c-0.815,1.444-2.009,1.891-3.565,1.765c-1.95-0.159-3.167-1.758-2.075-3.307c1.456-2.061,2.077-3.964,1.353-6.425
					c-0.28-0.956,0.483-1.808,1.525-2.17c1.28-0.445,2.427-0.065,3.25,0.858c0.539,0.604,0.955,1.512,1.007,2.311
					c0.081,1.282,0.612,1.908,1.803,2.218c5.054,1.323,10.091,2.712,15.149,4.017c2.396,0.619,4.847,1.031,7.238,1.669
					c2.692,0.719,5.304,0.017,7.911-0.351c6.356-0.897,12.688-1.972,19.035-2.943c1.234-0.188,1.769-0.809,1.692-2.037
					c-0.088-1.404,0.698-2.368,1.925-2.664c0.877-0.211,2.043-0.137,2.805,0.296c1.104,0.629,1.129,1.908,0.794,3.09
					c-0.125,0.436-0.467,0.835-0.499,1.267c-0.05,0.665-0.038,1.384,0.17,2.006c0.195,0.587,0.717,1.057,1.027,1.616
					c0.559,1.007,0.642,2.042-0.207,2.931c-0.882,0.927-2.063,1.239-3.141,0.605C156.648,149.009,155.851,148.168,155.229,147.304z
					 M164.736,169.167l-2.159,3.947l-2.158-3.947l-3.947-2.159l3.947-2.159l2.158-3.947l2.159,3.947l3.946,2.159L164.736,169.167z
					 M172.771,141.524l-1.762,3.222l-1.763-3.222l-3.221-1.762l3.221-1.762l1.763-3.223l1.762,3.223l3.222,1.762L172.771,141.524z"
					/>
			</g>
			<g>
				<circle cx="139.673" cy="132.798" r="1.586"/>
			</g>
			<g>
				<circle cx="134.227" cy="131.937" r="1.931"/>
			</g>
			<g>
				<circle cx="139.398" cy="119.32" r="3.93"/>
			</g>
			<g>
				<circle cx="116.922" cy="119.32" r="3.93"/>
			</g>
			<g>
				<path d="M121.224,169.247v14.624c0,0.772,0.629,1.4,1.402,1.4h3.728v-2.803h-2.326l-0.001-11.82h2.327v-2.802h-3.728
					C121.853,167.846,121.224,168.475,121.224,169.247z"/>
			</g>
			<g>
				<path d="M133.518,182.468h-2.327v2.803h3.727c0.773,0,1.402-0.628,1.402-1.4v-14.624c0-0.772-0.629-1.4-1.402-1.4h-3.727v2.802
					h2.326L133.518,182.468z"/>
			</g>
			<g>
				<path d="M133.517,201.895c0.02,0,0.041,0,0.061,0c0.964,0,1.684,0.169,2.742,0.687v-9.012c0-0.772-0.629-1.4-1.402-1.4h-3.727
					v2.802h2.326V201.895z"/>
			</g>
			<g>
				<path d="M121.224,193.569v9.008c0.971-0.444,1.848-0.576,2.803-0.641v-6.965h2.327v-2.802h-3.728
					C121.853,192.169,121.224,192.797,121.224,193.569z"/>
			</g>
			<g>
				<path d="M131.191,157.919v2.802h3.727c0.773,0,1.402-0.628,1.402-1.4v-7.715c-0.934-0.243-1.867-0.485-2.802-0.718v7.031
					H131.191z"/>
			</g>
			<g>
				<path d="M122.625,160.722h3.728v-2.802h-2.326v-7.777c-0.245,0.04-0.489,0.079-0.73,0.113c-0.692,0.098-1.381,0.208-2.074,0.311
					v8.755C121.224,160.093,121.853,160.722,122.625,160.722z"/>
			</g>
			<g>
				<path d="M130.194,181.389c0-1.131-0.439-1.322-1.422-1.322c-0.983,0-1.422,0.191-1.422,1.322v14.765
					c0,1.131,0.439,1.322,1.422,1.322c0.983,0,1.422-0.191,1.422-1.322V181.389z"/>
			</g>
			<g>
				<path d="M130.194,157.219c0-1.132-0.439-1.322-1.422-1.322c-0.983,0-1.422,0.19-1.422,1.322v14.765
					c0,1.131,0.439,1.322,1.422,1.322c0.983,0,1.422-0.19,1.422-1.322V157.219z"/>
			</g>
		</g>
	</g>
</g>
</svg>
