<?xml version="1.0" encoding="utf-8"?>
<!-- Generator: Adobe Illustrator 16.0.0, SVG Export Plug-In . SVG Version: 6.00 Build 0)  -->
<!DOCTYPE svg PUBLIC "-//W3C//DTD SVG 1.1//EN" "http://www.w3.org/Graphics/SVG/1.1/DTD/svg11.dtd">
<svg version="1.1" xmlns="http://www.w3.org/2000/svg" xmlns:xlink="http://www.w3.org/1999/xlink" x="0px" y="0px"
	 width="255.12px" height="255.12px" viewBox="0 0 255.12 255.12" enable-background="new 0 0 255.12 255.12" xml:space="preserve">
<g id="Layer_1">
</g>
<g id="Layer_2">
	<g>
		<circle fill="none" stroke="#000000" stroke-width="4" stroke-miterlimit="10" cx="128.129" cy="128.312" r="62.49"/>
		<path d="M120.859,114.017"/>
		<g>
			<path d="M98.732,73.003l28.62-38.253l30.174,38.925l-30.198-9.033L98.732,73.003z M127.326,64.131l22.215,4.402l-22.188-29.139
				L127.326,64.131z"/>
		</g>
		<g>
			<path d="M184.091,98.915l38.253,28.621l-38.925,30.174l9.032-30.199L184.091,98.915z M192.964,127.509l-4.402,22.215
				l29.138-22.188L192.964,127.509z"/>
		</g>
		<g>
			<path d="M157.526,183.583l-28.62,38.253l-30.174-38.925l30.198,9.032L157.526,183.583z M128.933,192.456l-22.215-4.403
				l22.188,29.14L128.933,192.456z"/>
		</g>
		<g>
			<path d="M72.504,157.71l-38.253-28.621l38.924-30.174l-9.031,30.199L72.504,157.71z M63.631,129.116l4.402-22.215l-29.139,22.188
				L63.631,129.116z"/>
		</g>
		<g>
			<path fill="none" d="M106.728,175.049c-0.029-0.044-0.045-0.069-0.045-0.069c0.027,0.097,0.071,0.183,0.104,0.277
				c0.059,0.213,0.067,0.23,0.006,0.016l-0.059-0.215c-0.016-0.063-0.031-0.123-0.052-0.199c0.008,0.029,0.007,0.058,0.015,0.087
				C106.71,174.987,106.718,175.016,106.728,175.049z"/>
		</g>
		<g>
			<path fill="none" d="M147.55,83.198c-2.404-2.488-4.801-4.97-7.197-7.449c-6.753,6.066-16.674,6.51-23.943,0.17
				c-2.456,2.44-4.905,4.871-7.421,7.368C120.476,94.476,138.834,92.623,147.55,83.198z"/>
			<path fill="none" d="M130.555,117.156c0,0-4.195,3.886-6.256,6.932l4.42-0.047c0.059-0.172,0.12-0.359,0.173-0.515
				c0.343-1.059,0.584-1.713,0.646-1.865c-0.037,0.175-0.22,1.034-0.521,2.377l3.625-0.038
				C131.74,120.438,130.555,117.156,130.555,117.156z"/>
			<path fill="none" d="M159.356,94.97c-2.51-2.588-5.015-5.17-7.521-7.753c-13.201,12.658-34.51,12.214-47.006,0.196
				c-2.55,2.545-5.099,5.089-7.724,7.71C114.499,112.376,143.907,111.146,159.356,94.97z"/>
			<path fill="none" d="M92.997,99.286c-2.547,2.654-5.091,5.307-7.634,7.959c10.321,10.023,23.236,15.375,36.31,16.687
				c2.072-3.372,9.447-9.709,9.447-9.709s2.12,4.654,3.52,9.69c14.037-1.43,27.313-7.403,36.688-17.21
				c-2.477-2.559-4.949-5.115-7.476-7.727C144.483,117.698,112.476,118.124,92.997,99.286z"/>
			<path d="M135.391,73.103c-1.822,1.806-4.325,2.925-7.093,2.924c-2.817,0.001-5.363-1.156-7.192-3.019
				c-27.326,3.341-48.495,26.61-48.495,54.838c0,2.85,0.217,5.649,0.633,8.383c0.043-0.006,0.083-0.019,0.126-0.024
				c-0.11-0.447-0.17-0.91-0.17-1.384c0-3.897,3.911-7.056,8.735-7.056c4.454,0,8.124,2.696,8.66,6.177
				c0.937-0.295,1.985-0.465,3.099-0.465c3.896,0,7.056,2.03,7.056,4.536c0,0.481-0.119,0.945-0.336,1.381
				c1.27,0.312,2.348,0.639,3.144,0.917c0.496,0.153,0.886,0.331,1.152,0.426c0.266,0.112,0.407,0.172,0.407,0.172
				s-0.142,0.06-0.407,0.173c-0.267,0.096-0.656,0.271-1.152,0.425c-0.992,0.347-2.409,0.772-4.11,1.146
				c-1.7,0.378-3.685,0.709-5.811,0.93c-1.063,0.113-2.162,0.204-3.278,0.255c-1.116,0.067-2.25,0.077-3.384,0.094
				c-1.134-0.016-2.268-0.022-3.384-0.09c-1.116-0.044-2.215-0.143-3.277-0.251c-2.069-0.214-3.998-0.534-5.669-0.899
				c3.921,14.085,13.279,25.898,25.667,33.05c2.352-0.478,4.862-1.572,6.022-2.172l0.468-0.243l0.47,0.248
				c0.045,0.023,4.615,2.4,8.831,0.579l0.415-0.18l0.411,0.192c2.998,1.396,10.278,2.353,11.894,0.8l0.512-0.492l0.636,0.317
				c5.597,2.793,11.33-0.164,11.388-0.193l0.453-0.239l0.464,0.226c0.07,0.034,6.848,3.283,13.058,1.229
				c9.242-5.307,16.807-13.208,21.699-22.71c-1.582,0.332-3.368,0.622-5.282,0.82c-1.063,0.108-2.162,0.207-3.278,0.251
				c-1.116,0.068-2.25,0.074-3.384,0.09c-1.134-0.017-2.268-0.027-3.384-0.094c-1.116-0.051-2.215-0.142-3.277-0.255
				c-2.126-0.222-4.11-0.552-5.812-0.93c-1.701-0.373-3.118-0.798-4.11-1.146c-0.496-0.154-0.886-0.33-1.151-0.425
				c-0.266-0.113-0.407-0.173-0.407-0.173s0.142-0.06,0.407-0.172c0.266-0.095,0.655-0.272,1.151-0.426
				c0.795-0.278,1.874-0.605,3.144-0.917c-0.216-0.436-0.335-0.9-0.335-1.381c0-2.505,3.158-4.536,7.055-4.536
				c1.113,0,2.163,0.17,3.099,0.465c0.536-3.481,4.205-6.177,8.661-6.177c4.823,0,8.734,3.159,8.734,7.055
				c0,1.595-0.662,3.059-1.765,4.24c0.152,0.033,0.314,0.063,0.463,0.097c0.372,0.082,0.725,0.167,1.069,0.253
				c2.9-6.715,4.516-14.116,4.516-21.895C183.144,99.874,162.356,76.77,135.391,73.103z M116.409,75.919
				c7.27,6.34,17.19,5.896,23.943-0.17c2.396,2.479,4.793,4.961,7.197,7.449c-8.716,9.424-27.074,11.278-38.562,0.089
				C111.504,80.791,113.953,78.359,116.409,75.919z M104.83,87.413c12.496,12.018,33.805,12.462,47.006-0.196
				c2.506,2.583,5.011,5.166,7.521,7.753c-15.449,16.176-44.857,17.406-62.25,0.152C99.731,92.501,102.28,89.958,104.83,87.413z
				 M135.647,124.922c0.75,2.702,1.293,5.513,1.187,7.776c0.242,4.545-2.862,17.971-2.862,17.971s-0.735,7.6-2.348,9.414
				c-1.18,1.32-4.565,0.574-6.048,3.688c-0.827,2.056-1.155,2.415-2.547,10.993c0,0-1.848-1.512-2.796-6.215
				c-0.604-1.817-0.706-7.63-0.706-7.63s-2.852-6.219-2.69-9.243c0.05-0.816,0.321-3.165,0.706-6.158
				c0.04-0.383,0.09-0.766,0.151-1.169c0.049-0.434,0.11-0.877,0.171-1.331c1.037-8.033,0.463-14.342,2.499-18.556
				c0.08-0.165,0.188-0.346,0.301-0.531c-13.073-1.312-24.98-6.664-35.302-16.687c2.543-2.652,5.087-5.305,7.634-7.959
				c19.479,18.838,51.486,18.412,70.855-0.309c2.526,2.611,4.999,5.167,7.476,7.727C161.953,116.51,149.686,123.493,135.647,124.922
				z"/>
			<path d="M129.639,176.862c-3.016,1.847-10.07,0.568-13.15-0.691c-4.151,1.585-8.29,0.042-9.684-0.584
				c-0.743,0.362-2.202,1.023-3.9,1.561c0.318,0.162,0.634,0.323,0.955,0.479c1.502-0.366,2.572-0.81,2.572-0.81
				s5.024,3.275,9.81,0.756c3.109,1.764,11.005,3.275,13.158,0.756c6.221,3.78,12.441-0.252,12.441-0.252s2.246,1.138,5.455,1.52
				c0.91-0.341,1.808-0.707,2.693-1.094c-3.801-0.17-6.993-1.394-8.15-1.9C140.274,177.306,135.061,179.262,129.639,176.862z"/>
			<path d="M121.673,123.932c-0.112,0.185-0.221,0.366-0.3,0.531c-2.036,4.213-1.461,10.523-2.5,18.556
				c-0.061,0.454-0.121,0.897-0.171,1.331c-0.062,0.403-0.11,0.786-0.151,1.169c-0.383,2.994-0.655,5.342-0.705,6.158
				c-0.161,3.024,2.691,9.243,2.691,9.243l0.704,7.63l1.281,4.364c1.391-8.578,1.219-8.094,2.046-10.15
				c1.481-3.114,4.868-2.368,6.047-3.688c1.612-1.814,2.349-9.414,2.349-9.414s3.104-13.425,2.862-17.971
				c0.105-2.263-0.437-5.074-1.187-7.776c-1.399-5.036-3.52-9.69-3.52-9.69S123.745,120.56,121.673,123.932z M132.954,142.656
				l-0.988,5.342l-5.392,1.472l4.605,1.209c0,0-0.402,6.511-2.046,7.58c-0.323,0.211-0.957-0.142-1.552-0.142
				c-1.25,0-2.107,0.343-2.54,1.008c-1.824,2.792-2.318,6.37-2.731,9.736c0-0.443-0.252-2.399-0.242-2.833
				c0.03-0.191-0.232-3.608-0.191-3.84c0.182-1.26,0.564,0.322,0.886-1.845c0.294-2.167,0.637-4.707,0.998-7.418
				c0.354-2.711,0.717-5.604,1.089-8.497c0.192-1.441,0.394-2.893,0.585-4.314c0.213-1.391,0.484-2.771,0.786-4.102
				c0.272-1.331,0.615-2.611,0.896-3.831c0.283-1.219,0.546-2.369,0.798-3.437c0.458-1.893,0.827-3.497,1.101-4.708
				c0.302-1.343,0.484-2.202,0.521-2.377c-0.062,0.151-0.303,0.806-0.646,1.865c-0.053,0.156-0.114,0.343-0.173,0.515
				c-0.395,1.176-0.894,2.706-1.43,4.534c-0.312,1.059-0.645,2.198-0.998,3.397c-0.312,1.219-0.665,2.5-0.977,3.84
				c-0.333,1.331-0.636,2.722-0.878,4.173c-0.101,0.816-0.201,1.653-0.302,2.479c-0.07,0.615-0.151,1.229-0.222,1.845
				c-0.172,1.441-0.343,2.892-0.504,4.324c-0.152,1.431-0.323,2.832-0.454,4.203c-0.252,2.721,0.081,5.402-0.706,7.448
				c-0.06,0.152-0.393,0.535-0.393,0.535l-2.47-7.126l1.129-9.151l2.803-2.177l-3.055-0.081l1.572-13.052l3.056,3.124
				c-0.102-0.252-1.986-4.586-1.674-6.098c0.124-0.603,0.531-1.358,1.081-2.169c2.061-3.046,6.256-6.932,6.256-6.932
				s1.186,3.282,2.086,6.844c0.753,2.973,1.307,6.142,0.807,7.76c-0.423,1.381-4.133,4.042-4.133,4.042l4.476-1.371L132.954,142.656
				z"/>
		</g>
	</g>
</g>
</svg>
