<?xml version="1.0" encoding="utf-8"?>
<!-- Generator: Adobe Illustrator 16.0.0, SVG Export Plug-In . SVG Version: 6.00 Build 0)  -->
<!DOCTYPE svg PUBLIC "-//W3C//DTD SVG 1.1//EN" "http://www.w3.org/Graphics/SVG/1.1/DTD/svg11.dtd">
<svg version="1.1" xmlns="http://www.w3.org/2000/svg" xmlns:xlink="http://www.w3.org/1999/xlink" x="0px" y="0px"
	 width="255.121px" height="255.12px" viewBox="0 0 255.121 255.12" enable-background="new 0 0 255.121 255.12"
	 xml:space="preserve">
<g id="Layer_1">
</g>
<g id="Layer_2">
	<g>
		<g>
			<path fill="none" d="M84.232,93.049l-0.477-9.356l9.356,0.478l-6.954-6.278l6.954-6.277l-9.356,0.477l0.477-9.356l-6.277,6.954
				l-6.278-6.954l0.478,9.356l-9.355-0.477l6.953,6.277l-6.953,6.278l9.355-0.478l-0.478,9.356l6.278-6.955L84.232,93.049z
				 M70.163,77.593c0-4.137,3.352-7.491,7.491-7.491c4.137,0,7.49,3.354,7.49,7.491c0,4.136-3.353,7.489-7.49,7.489
				C73.515,85.082,70.163,81.729,70.163,77.593z"/>
		</g>
		<g>
			<path fill="none" d="M71.225,169.562l-24.414-26.657c-1.599,0.808-4.297,2.56-5.573,5.629c-1.341,3.222-0.865,7.234,1.414,11.924
				c7.978,7.957,14.053,13.083,17.807,16.024c1.266-2.502,4.443-4.092,5.702-4.723C68.112,170.785,69.782,170.058,71.225,169.562z"
				/>
		</g>
		<g>
			<path fill="none" d="M110.163,94.822c1.159,1.252,3.112,1.326,4.362,0.166c1.251-1.159,1.325-3.111,0.165-4.363l-10.756-11.601
				c-1.16-1.252-3.113-1.326-4.364-0.167c-1.251,1.16-1.325,3.114-0.164,4.364L110.163,94.822z"/>
		</g>
		<g>
			<circle fill="none" cx="128.388" cy="108.192" r="7.442"/>
		</g>
		<g>
			<path fill="none" d="M183.027,88.962c4.467,0,8.419-2.189,10.852-5.551c-1.731,0.912-3.702,1.432-5.796,1.432
				c-6.876,0-12.453-5.575-12.453-12.452c0-4.091,1.974-7.721,5.021-9.992c-6.26,1.123-11.012,6.592-11.012,13.174
				C169.639,82.968,175.633,88.962,183.027,88.962z"/>
		</g>
		<g>
			<path fill="none" d="M147.393,94.822l10.756-11.601c1.16-1.25,1.085-3.205-0.166-4.364c-1.25-1.159-3.202-1.085-4.362,0.165
				l-10.756,11.603c-1.162,1.251-1.086,3.204,0.164,4.363C144.28,96.148,146.233,96.074,147.393,94.822z"/>
		</g>
		<g>
			<path fill="none" d="M212.262,142.907l-24.413,26.655c1.443,0.497,3.113,1.222,5.064,2.198c1.258,0.63,4.434,2.22,5.701,4.72
				c3.763-2.949,9.851-8.083,17.81-16.021c2.287-4.71,2.758-8.731,1.397-11.961C216.542,145.46,213.856,143.715,212.262,142.907z"/>
		</g>
		<g>
			<path d="M129.503,150.749c-12.961,0.146-23.853,4.787-31.651,9.587l21.433,37.123c5.983,10.365,15.775,10.365,21.761,0
				l21.099-36.546c-0.012-0.007-0.023-0.016-0.035-0.024C154.251,155.722,142.989,150.889,129.503,150.749z M129.537,187.257
				c-8.108,0-14.681-6.574-14.681-14.683s6.573-14.681,14.681-14.681c8.109,0,14.681,6.572,14.681,14.681
				S137.646,187.257,129.537,187.257z"/>
		</g>
		<g>
			<path d="M128.378,93.498c-13.338,0-13.792,12.528-13.532,17.305c0.365,6.687,13.532,21.949,13.532,21.949
				s13.169-15.263,13.532-21.949C142.17,106.026,142.296,93.498,128.378,93.498z M128.388,115.635c-4.11,0-7.442-3.331-7.442-7.441
				c0-4.111,3.332-7.443,7.442-7.443c4.111,0,7.443,3.332,7.443,7.443C135.831,112.304,132.499,115.635,128.388,115.635z"/>
		</g>
		<g>
			<path d="M72.751,135.55c-7.367,4.245-3.479,10.837-1.883,13.286c2.23,3.427,13.855,7.489,13.855,7.489s2.314-12.095,0.467-15.743
				C83.871,137.974,79.811,131.482,72.751,135.55z M79.497,147.269c-2.176,1.254-4.954,0.506-6.208-1.669
				c-1.254-2.176-0.508-4.956,1.668-6.208c2.176-1.255,4.956-0.508,6.209,1.668C82.42,143.235,81.673,146.015,79.497,147.269z"/>
		</g>
		<g>
			<path d="M173.394,140.132c-1.846,3.648,0.467,15.744,0.467,15.744s11.625-4.062,13.857-7.489
				c1.594-2.448,5.482-9.041-1.885-13.285C178.774,131.033,174.714,137.524,173.394,140.132z M177.418,140.61
				c1.253-2.177,4.033-2.923,6.209-1.669c2.175,1.253,2.923,4.033,1.668,6.208c-1.253,2.176-4.033,2.923-6.208,1.669
				C176.911,145.566,176.165,142.786,177.418,140.61z"/>
		</g>
		<g>
			<path d="M146.383,121.089c-1.251-1.16-3.205-1.086-4.364,0.164c-1.159,1.251-1.085,3.204,0.166,4.364l11.602,10.757
				c1.25,1.16,3.203,1.085,4.362-0.166c1.16-1.25,1.085-3.202-0.164-4.362L146.383,121.089z"/>
		</g>
		<g>
			<path d="M110.162,120.831l-10.756,11.604c-1.161,1.25-1.087,3.204,0.164,4.363s3.204,1.085,4.364-0.166l10.756-11.601
				c1.16-1.251,1.086-3.205-0.165-4.364C113.275,119.507,111.322,119.581,110.162,120.831z"/>
		</g>
		<g>
			<path d="M221.963,146.752c-2.7-6.41-9.314-8.59-9.595-8.679l-1.37-0.439l-10.261,11.203
				c-1.246-10.042-6.722-19.499-15.818-27.367l28.59-49.519c5.984-10.367,1.087-18.848-10.88-18.848H57.702
				c-11.968,0-16.864,8.481-10.88,18.848l28.17,48.792c-9.604,8.009-15.369,17.744-16.655,28.094l-10.26-11.203l-1.371,0.439
				c-0.279,0.089-6.894,2.27-9.595,8.679c-1.924,4.567-1.36,9.964,1.679,16.04l0.163,0.325l0.258,0.258
				c14.386,14.387,22.794,19.85,23.145,20.077l0.191-0.296c4.53,3.577,13.792,5.441,18.365,6.176l2.604,0.417v-2.636
				c0-11.534,4.524-20.356,13.449-26.224c0.287-0.189,0.59-0.369,0.888-0.552c7.798-4.8,18.69-8.419,31.651-8.564
				c13.486,0.141,24.748,3.951,32.607,9.117c0.012,0.008,0.023,0.017,0.035,0.024c8.9,5.867,13.414,14.681,13.414,26.2v2.636
				l2.604-0.417c4.573-0.733,13.835-2.599,18.367-6.176l0.189,0.296c0.351-0.226,8.757-5.689,23.146-20.077l0.257-0.258l0.164-0.325
				C223.324,156.716,223.886,151.319,221.963,146.752z M180.65,62.399c-3.047,2.271-5.021,5.9-5.021,9.992
				c0,6.877,5.576,12.452,12.453,12.452c2.094,0,4.065-0.52,5.796-1.432c-2.432,3.361-6.385,5.551-10.852,5.551
				c-7.395,0-13.389-5.995-13.389-13.389C169.639,68.991,174.391,63.522,180.65,62.399z M142.866,90.625l10.756-11.603
				c1.16-1.25,3.112-1.324,4.362-0.165c1.251,1.16,1.325,3.114,0.166,4.364l-10.756,11.601c-1.16,1.252-3.113,1.326-4.364,0.166
				C141.779,93.828,141.704,91.876,142.866,90.625z M99.57,78.857c1.251-1.159,3.204-1.085,4.364,0.167l10.756,11.601
				c1.16,1.251,1.086,3.204-0.165,4.363c-1.25,1.161-3.203,1.086-4.362-0.166L99.406,83.221
				C98.245,81.971,98.319,80.017,99.57,78.857z M71.677,93.049l0.478-9.356l-9.355,0.478l6.953-6.278l-6.953-6.277l9.355,0.477
				l-0.478-9.356l6.278,6.954l6.277-6.954l-0.477,9.356l9.356-0.477l-6.954,6.277l6.954,6.278l-9.356-0.478l0.477,9.356
				l-6.277-6.955L71.677,93.049z M60.458,176.482c-3.754-2.941-9.83-8.067-17.807-16.024c-2.278-4.69-2.754-8.702-1.414-11.924
				c1.276-3.069,3.974-4.821,5.573-5.629l24.414,26.657c-1.442,0.496-3.113,1.222-5.064,2.197
				C64.901,172.39,61.725,173.98,60.458,176.482z M179.978,184.441c-1.291-22.481-19.08-35.523-49.338-36.126v-0.03
				c-0.383,0-0.755,0.012-1.134,0.015c-0.359-0.003-0.709-0.014-1.07-0.014v0.028c-30.261,0.603-48.05,13.648-49.338,36.131
				c-9.342-1.811-14.501-4.636-14.675-5.777c-0.002-0.01,0.146-1.085,3.751-2.888c3.231-1.616,5.054-2.201,6.02-2.406
				c-0.451,1.085-1.441,2.736-2.508,4.113l3.549,2.757c4.522-5.815,4.083-8.729,2.918-10.15c-0.341-0.416-0.742-0.733-1.217-0.954
				l-14.54-15.877h0.149c0-11.956,5.953-24.258,18.398-33.009c9.827-6.91,16.955-9.489,30.271-11.204
				c0-10.749,7.898-18.876,17.454-18.876s17.228,8.951,17.251,18.356c13.888,1.479,21.898,4.469,32.217,11.725
				c12.445,8.75,18.399,21.053,18.399,33.009h0.149l-14.541,15.877c-0.474,0.221-0.876,0.539-1.217,0.954
				c-1.165,1.42-1.604,4.335,2.918,10.15l3.548-2.757c-1.067-1.377-2.057-3.028-2.508-4.114c0.966,0.206,2.788,0.791,6.02,2.407
				c3.605,1.803,3.753,2.878,3.751,2.888C194.426,180.159,188.159,182.833,179.978,184.441z M216.424,160.459
				c-7.959,7.938-14.047,13.072-17.81,16.021c-1.267-2.5-4.442-4.089-5.701-4.72c-1.951-0.976-3.621-1.701-5.064-2.198
				l24.413-26.655c1.594,0.808,4.28,2.553,5.559,5.591C219.182,151.728,218.71,155.749,216.424,160.459z"/>
		</g>
		<g>
			<g>
				<path d="M129.423,185.653l-4.803-12.494h9.605L129.423,185.653z M125.93,174.058l3.494,9.091l3.494-9.091H125.93z"/>
			</g>
			<g>
				<polygon points="125.275,172.352 129.423,161.559 133.571,172.352 				"/>
				<path d="M134.226,172.802h-9.605l4.803-12.495L134.226,172.802z M125.93,171.903h6.987l-3.494-9.09L125.93,171.903z"/>
			</g>
			<g>
				<rect x="125.069" y="172.578" width="8.708" height="0.899"/>
			</g>
		</g>
		<g>
			<path d="M128.464,142.31c-0.091,0-0.182-0.013-0.272-0.042c-0.397-0.126-0.792-0.262-1.184-0.406
				c-0.467-0.173-0.704-0.688-0.533-1.155c0.171-0.466,0.688-0.705,1.153-0.533c0.367,0.135,0.735,0.263,1.106,0.38
				c0.474,0.151,0.735,0.656,0.585,1.129C129.2,142.066,128.846,142.31,128.464,142.31z M124.838,140.863
				c-0.129,0-0.262-0.028-0.387-0.087c-0.811-0.387-1.634-0.826-2.448-1.304c-0.428-0.251-0.572-0.803-0.319-1.23
				c0.251-0.428,0.8-0.574,1.229-0.32c0.772,0.452,1.55,0.867,2.314,1.232c0.447,0.215,0.637,0.751,0.423,1.199
				C125.495,140.674,125.173,140.863,124.838,140.863z M120.183,138.143c-0.178,0-0.355-0.052-0.51-0.16
				c-0.743-0.512-1.488-1.065-2.215-1.643c-0.389-0.309-0.455-0.873-0.146-1.262c0.31-0.389,0.874-0.455,1.263-0.146
				c0.696,0.552,1.409,1.081,2.12,1.572c0.408,0.283,0.51,0.842,0.229,1.25C120.748,138.008,120.468,138.143,120.183,138.143z
				 M115.952,134.797c-0.214,0-0.427-0.075-0.599-0.228c-0.665-0.594-1.338-1.226-2-1.878c-0.353-0.35-0.356-0.918-0.008-1.272
				c0.349-0.352,0.917-0.356,1.271-0.007c0.64,0.632,1.291,1.242,1.933,1.816c0.37,0.33,0.403,0.898,0.072,1.268
				C116.444,134.695,116.199,134.797,115.952,134.797z M112.11,131.01c-0.241,0-0.484-0.098-0.66-0.291
				c-0.625-0.675-1.229-1.36-1.814-2.048c-0.321-0.379-0.275-0.946,0.102-1.267c0.378-0.322,0.946-0.276,1.267,0.103
				c0.571,0.669,1.16,1.336,1.766,1.995c0.336,0.364,0.313,0.933-0.051,1.27C112.547,130.93,112.328,131.01,112.11,131.01z
				 M108.613,126.897c-0.266,0-0.529-0.118-0.707-0.342c-0.573-0.728-1.123-1.455-1.652-2.176c-0.293-0.4-0.206-0.963,0.194-1.256
				c0.402-0.294,0.963-0.207,1.256,0.194c0.516,0.704,1.053,1.416,1.613,2.125c0.309,0.39,0.241,0.956-0.148,1.263
				C109.004,126.834,108.808,126.897,108.613,126.897z M105.42,122.542c-0.288,0-0.569-0.137-0.742-0.391
				c-0.531-0.776-1.034-1.536-1.507-2.273c-0.267-0.418-0.146-0.975,0.271-1.242c0.417-0.27,0.974-0.147,1.242,0.271
				c0.464,0.723,0.957,1.469,1.476,2.229c0.281,0.41,0.175,0.969-0.233,1.249C105.771,122.491,105.595,122.542,105.42,122.542z
				 M102.505,117.994c-0.305,0-0.603-0.154-0.771-0.436c-0.504-0.838-0.961-1.63-1.37-2.359c-0.244-0.433-0.088-0.981,0.345-1.224
				c0.434-0.241,0.979-0.087,1.223,0.344c0.401,0.715,0.849,1.492,1.343,2.314c0.255,0.425,0.118,0.978-0.308,1.233
				C102.822,117.954,102.663,117.994,102.505,117.994z M99.863,113.28c-0.325,0-0.639-0.175-0.798-0.483
				c-0.793-1.525-1.207-2.439-1.225-2.477c-0.203-0.453-0.003-0.985,0.45-1.189c0.452-0.206,0.985-0.003,1.188,0.45
				c0.005,0.009,0.414,0.911,1.182,2.385c0.229,0.441,0.058,0.984-0.383,1.212C100.145,113.249,100.003,113.28,99.863,113.28z"/>
		</g>
		<g>
			<path d="M129.671,142.31c-0.381,0-0.735-0.243-0.857-0.626c-0.15-0.473,0.111-0.979,0.586-1.129
				c0.371-0.117,0.739-0.245,1.105-0.38c0.465-0.171,0.982,0.066,1.154,0.533c0.171,0.467-0.067,0.982-0.533,1.155
				c-0.392,0.144-0.788,0.279-1.185,0.406C129.852,142.296,129.76,142.31,129.671,142.31z M133.296,140.863
				c-0.335,0-0.656-0.188-0.811-0.511c-0.214-0.448-0.025-0.984,0.423-1.199c0.764-0.365,1.542-0.78,2.313-1.232
				c0.429-0.253,0.979-0.108,1.231,0.32c0.251,0.427,0.108,0.979-0.321,1.23c-0.814,0.478-1.638,0.917-2.447,1.304
				C133.56,140.835,133.427,140.863,133.296,140.863z M137.952,138.143c-0.285,0-0.565-0.135-0.739-0.388
				c-0.283-0.408-0.182-0.966,0.228-1.25c0.71-0.491,1.422-1.021,2.12-1.572c0.39-0.311,0.955-0.244,1.263,0.146
				c0.309,0.389,0.244,0.953-0.146,1.262c-0.727,0.578-1.474,1.131-2.216,1.643C138.306,138.09,138.129,138.143,137.952,138.143z
				 M142.184,134.797c-0.247,0-0.494-0.102-0.671-0.301c-0.33-0.37-0.297-0.938,0.073-1.268c0.643-0.574,1.293-1.184,1.933-1.816
				c0.353-0.349,0.922-0.344,1.271,0.007c0.349,0.354,0.345,0.922-0.008,1.272c-0.661,0.652-1.334,1.285-2,1.878
				C142.61,134.722,142.396,134.797,142.184,134.797z M146.024,131.01c-0.218,0-0.436-0.08-0.609-0.239
				c-0.365-0.337-0.387-0.906-0.051-1.27c0.606-0.659,1.194-1.325,1.765-1.995c0.321-0.378,0.888-0.425,1.267-0.103
				c0.378,0.321,0.425,0.888,0.103,1.267c-0.586,0.688-1.19,1.373-1.814,2.048C146.509,130.912,146.268,131.01,146.024,131.01z
				 M149.522,126.897c-0.195,0-0.391-0.063-0.556-0.193c-0.39-0.307-0.457-0.873-0.149-1.263c0.559-0.709,1.098-1.421,1.612-2.125
				c0.293-0.4,0.856-0.489,1.257-0.194c0.4,0.293,0.487,0.856,0.193,1.256c-0.528,0.721-1.079,1.448-1.652,2.176
				C150.051,126.78,149.787,126.897,149.522,126.897z M152.714,122.542c-0.173,0-0.351-0.051-0.506-0.157
				c-0.41-0.28-0.516-0.839-0.234-1.249c0.52-0.76,1.013-1.506,1.477-2.229c0.268-0.418,0.823-0.541,1.241-0.271
				c0.418,0.268,0.54,0.824,0.271,1.242c-0.473,0.737-0.976,1.498-1.505,2.273C153.283,122.405,153.002,122.542,152.714,122.542z
				 M155.629,117.994c-0.158,0-0.317-0.041-0.461-0.127c-0.427-0.255-0.564-0.808-0.309-1.233c0.495-0.823,0.942-1.599,1.343-2.314
				c0.244-0.432,0.791-0.585,1.224-0.344c0.433,0.243,0.588,0.792,0.344,1.224c-0.409,0.729-0.866,1.521-1.369,2.359
				C156.232,117.84,155.935,117.994,155.629,117.994z M158.272,113.28c-0.14,0-0.281-0.032-0.414-0.102
				c-0.441-0.229-0.612-0.771-0.383-1.212c0.768-1.474,1.177-2.376,1.181-2.385c0.204-0.453,0.736-0.655,1.189-0.45
				c0.453,0.204,0.653,0.736,0.449,1.189c-0.018,0.038-0.431,0.952-1.224,2.477C158.91,113.105,158.597,113.28,158.272,113.28z"/>
		</g>
		<g>
			<path d="M86.892,158.287c-0.169,0-0.34-0.048-0.492-0.148c-0.416-0.272-0.531-0.829-0.258-1.245
				c0.491-0.747,1.106-1.493,1.829-2.214c0.351-0.352,0.92-0.352,1.271,0c0.351,0.351,0.351,0.919,0,1.271
				c-0.635,0.635-1.172,1.285-1.597,1.93C87.473,158.145,87.185,158.287,86.892,158.287z M90.643,154.449
				c-0.271,0-0.539-0.122-0.716-0.354c-0.3-0.395-0.224-0.958,0.171-1.26c0.697-0.531,1.469-1.061,2.295-1.572
				c0.423-0.261,0.976-0.132,1.238,0.29c0.263,0.422,0.132,0.976-0.29,1.237c-0.776,0.482-1.501,0.979-2.154,1.476
				C91.024,154.389,90.833,154.449,90.643,154.449z M95.21,151.586c-0.322,0-0.635-0.174-0.796-0.48
				c-0.231-0.439-0.063-0.983,0.377-1.214c0.78-0.411,1.61-0.819,2.466-1.212c0.454-0.204,0.986-0.007,1.192,0.444
				c0.207,0.451,0.009,0.985-0.443,1.191c-0.827,0.378-1.627,0.771-2.377,1.167C95.496,151.553,95.352,151.586,95.21,151.586z
				 M100.113,149.33c-0.357,0-0.693-0.212-0.834-0.562c-0.187-0.46,0.036-0.985,0.497-1.17c0.834-0.336,1.686-0.662,2.554-0.974
				c0.465-0.173,0.981,0.073,1.149,0.54c0.169,0.467-0.073,0.983-0.54,1.151c-0.845,0.305-1.677,0.622-2.491,0.95
				C100.338,149.308,100.225,149.33,100.113,149.33z M105.189,147.499c-0.379,0-0.732-0.243-0.855-0.624
				c-0.153-0.472,0.106-0.979,0.58-1.131c0.862-0.277,1.732-0.542,2.608-0.794c0.479-0.135,0.976,0.139,1.112,0.616
				s-0.139,0.975-0.616,1.112c-0.857,0.247-1.71,0.506-2.554,0.778C105.373,147.484,105.281,147.499,105.189,147.499z
				 M110.375,146.003c-0.4,0-0.765-0.27-0.87-0.675c-0.124-0.481,0.167-0.971,0.647-1.095c0.883-0.226,1.767-0.44,2.647-0.64
				c0.484-0.114,0.966,0.191,1.078,0.675c0.109,0.484-0.193,0.966-0.677,1.076c-0.864,0.198-1.734,0.407-2.601,0.631
				C110.524,145.994,110.448,146.003,110.375,146.003z M115.64,144.806c-0.421,0-0.797-0.296-0.882-0.724
				c-0.096-0.488,0.22-0.961,0.707-1.057c0.904-0.179,1.799-0.343,2.68-0.493c0.493-0.075,0.952,0.246,1.036,0.736
				c0.083,0.489-0.246,0.954-0.736,1.036c-0.865,0.147-1.744,0.308-2.63,0.483C115.756,144.8,115.698,144.806,115.64,144.806z
				 M120.963,143.912c-0.443,0-0.828-0.326-0.89-0.777c-0.067-0.492,0.277-0.945,0.769-1.013c0.929-0.127,1.835-0.234,2.714-0.322
				c0.498-0.037,0.935,0.311,0.984,0.805c0.049,0.494-0.311,0.935-0.806,0.983c-0.857,0.086-1.742,0.191-2.647,0.315
				C121.045,143.909,121.003,143.912,120.963,143.912z M126.335,143.378c-0.474,0-0.87-0.37-0.897-0.849
				c-0.028-0.496,0.353-0.92,0.848-0.947c0.911-0.051,1.76-0.068,2.561-0.076h0.187c0.497,0,0.9,0.402,0.9,0.899
				c0,0.497-0.403,0.899-0.9,0.899h-0.188c-0.752,0-1.583,0.024-2.46,0.072C126.37,143.377,126.353,143.378,126.335,143.378z"/>
		</g>
		<g>
			<path d="M172.287,158.287c-0.292,0-0.58-0.143-0.752-0.406c-0.424-0.646-0.961-1.295-1.597-1.93c-0.351-0.352-0.351-0.92,0-1.271
				c0.351-0.352,0.921-0.352,1.271,0c0.722,0.721,1.338,1.467,1.83,2.214c0.271,0.416,0.157,0.973-0.258,1.245
				C172.627,158.239,172.457,158.287,172.287,158.287z M168.537,154.449c-0.189,0-0.381-0.06-0.544-0.184
				c-0.653-0.497-1.377-0.994-2.154-1.476c-0.422-0.262-0.552-0.815-0.289-1.237c0.26-0.422,0.815-0.552,1.238-0.29
				c0.825,0.512,1.598,1.042,2.295,1.572c0.395,0.301,0.472,0.865,0.17,1.26C169.076,154.327,168.809,154.449,168.537,154.449z
				 M163.969,151.586c-0.141,0-0.284-0.033-0.418-0.104c-0.751-0.396-1.55-0.789-2.378-1.167c-0.451-0.207-0.648-0.74-0.443-1.191
				c0.207-0.452,0.74-0.65,1.192-0.444c0.857,0.393,1.687,0.801,2.467,1.212c0.439,0.231,0.607,0.775,0.376,1.214
				C164.604,151.412,164.292,151.586,163.969,151.586z M159.067,149.33c-0.112,0-0.226-0.022-0.336-0.066
				c-0.813-0.328-1.646-0.645-2.491-0.95c-0.467-0.168-0.708-0.685-0.54-1.151c0.169-0.467,0.686-0.712,1.15-0.54
				c0.867,0.312,1.72,0.637,2.554,0.974c0.461,0.186,0.682,0.71,0.497,1.17C159.76,149.118,159.424,149.33,159.067,149.33z
				 M153.991,147.499c-0.092,0-0.185-0.014-0.276-0.043c-0.844-0.272-1.697-0.532-2.553-0.778c-0.477-0.138-0.753-0.635-0.617-1.112
				c0.138-0.478,0.637-0.751,1.113-0.616c0.875,0.252,1.746,0.517,2.608,0.794c0.473,0.152,0.732,0.659,0.58,1.131
				C154.724,147.256,154.371,147.499,153.991,147.499z M148.805,146.003c-0.074,0-0.149-0.009-0.225-0.028
				c-0.867-0.224-1.736-0.433-2.6-0.631c-0.485-0.11-0.786-0.592-0.677-1.076c0.111-0.484,0.595-0.789,1.077-0.675
				c0.881,0.2,1.764,0.414,2.647,0.64c0.48,0.124,0.771,0.614,0.648,1.095C149.57,145.733,149.205,146.003,148.805,146.003z
				 M143.54,144.806c-0.058,0-0.116-0.006-0.176-0.018c-0.886-0.175-1.766-0.336-2.631-0.483c-0.49-0.083-0.819-0.547-0.735-1.036
				c0.083-0.49,0.546-0.812,1.035-0.736c0.882,0.149,1.776,0.314,2.68,0.493c0.487,0.096,0.804,0.569,0.708,1.057
				C144.336,144.509,143.961,144.806,143.54,144.806z M138.216,143.912c-0.041,0-0.082-0.003-0.124-0.008
				c-0.906-0.125-1.792-0.229-2.649-0.315c-0.494-0.049-0.855-0.49-0.805-0.983c0.05-0.494,0.492-0.843,0.983-0.805
				c0.879,0.088,1.786,0.195,2.715,0.322c0.492,0.068,0.835,0.521,0.768,1.013C139.044,143.585,138.659,143.912,138.216,143.912z
				 M132.843,143.378c-0.016,0-0.034,0-0.05-0.002c-0.878-0.047-1.692-0.075-2.46-0.072h-0.188c-0.496,0-0.899-0.402-0.899-0.899
				c0-0.497,0.403-0.899,0.899-0.899h0.188c0.778,0.006,1.648,0.025,2.56,0.076c0.495,0.027,0.875,0.451,0.848,0.947
				C133.713,143.008,133.317,143.378,132.843,143.378z"/>
		</g>
	</g>
</g>
</svg>
