<?xml version="1.0" encoding="utf-8"?>
<!-- Generator: Adobe Illustrator 16.0.0, SVG Export Plug-In . SVG Version: 6.00 Build 0)  -->
<!DOCTYPE svg PUBLIC "-//W3C//DTD SVG 1.1//EN" "http://www.w3.org/Graphics/SVG/1.1/DTD/svg11.dtd">
<svg version="1.1" xmlns="http://www.w3.org/2000/svg" xmlns:xlink="http://www.w3.org/1999/xlink" x="0px" y="0px"
	 width="255.121px" height="255.12px" viewBox="0 0 255.121 255.12" enable-background="new 0 0 255.121 255.12"
	 xml:space="preserve">
<g id="Layer_1">
</g>
<g id="Layer_2">
	<g>
		<path d="M121.888,82.169h-6.441c-3.662,0-6.631-2.322-6.631-5.184l0,0c0-2.864,2.969-5.186,6.631-5.186h12.465"/>
		<path d="M149.646,82.169h6.44c3.662,0,6.632-2.322,6.632-5.184l0,0c0-2.864-2.97-5.186-6.632-5.186h-12.463"/>
		<g>
			<path d="M135.748,43.353c-9.586,0-17.357,7.771-17.357,17.357c0,6.336,3.406,11.864,8.477,14.894
				c0.096-1.086,0.641-2.122,1.643-2.565c0.989-0.437,1.599-0.735,1.655-1.891c0.059-1.198,0.616-2.064,1.389-2.604
				c-2.792-1.499-4.693-4.444-4.693-7.835c0-4.908,3.979-8.887,8.888-8.887c4.907,0,8.887,3.979,8.887,8.887
				c0,3.874-2.484,7.161-5.942,8.377c0.436,0.259,0.822,0.616,1.115,1.094c0.785,1.279,1.581,2.405,2.857,3.229
				c0.993,0.64,1.444,1.538,1.531,2.458c5.312-2.968,8.909-8.64,8.909-15.157C153.105,51.123,145.334,43.353,135.748,43.353z"/>
		</g>
		<path fill="none" stroke="#000000" stroke-width="4" stroke-miterlimit="10" d="M139.103,229.014
			c-1.901,1.901-4.982,1.901-6.883,0l-76.292-76.291c-1.901-1.901-1.901-4.984,0-6.885l76.292-76.292c1.9-1.9,4.981-1.9,6.883,0
			l76.292,76.292c1.9,1.901,1.9,4.984,0,6.885L139.103,229.014z"/>
		<g>
			<path d="M170.857,180.075c-0.271-0.532-0.527-1.033-0.73-1.521c-0.211-0.502-0.387-0.991-0.556-1.46
				c-0.517-1.433-1.003-2.786-2.268-3.937c-0.886-0.804-2.07-1.01-3.216-1.21c-0.675-0.116-1.371-0.236-1.979-0.479
				c-0.545-0.216-1.113-0.528-1.714-0.86c-0.929-0.511-1.888-1.039-2.893-1.288c-0.224-0.153-0.854-0.133-0.854-0.133
				c-0.245-0.03-0.495-0.019-0.718,0.133c-1.005,0.249-1.964,0.777-2.893,1.288c-0.601,0.332-1.17,0.645-1.714,0.86
				c-0.607,0.243-1.305,0.364-1.979,0.479c-1.146,0.2-2.331,0.406-3.216,1.21c-1.265,1.151-1.751,2.503-2.268,3.937
				c-0.169,0.47-0.345,0.958-0.556,1.46c-0.203,0.488-0.46,0.989-0.73,1.521c-0.714,1.396-1.452,2.838-1.452,4.39
				c0,0.754,0.474,1.927,0.931,3.061c0.266,0.663,0.519,1.287,0.604,1.67c0.641,2.853,0.902,4.034,2.942,6.072
				c0.979,0.981,2.122,1.328,3.335,1.697c0.544,0.165,1.106,0.336,1.664,0.571c0.512,0.219,1.021,0.49,1.564,0.777
				c1.325,0.705,2.698,1.432,4.239,1.432c0.11,0,0.517,0,0.627,0c1.54,0,2.914-0.727,4.239-1.432
				c0.543-0.287,1.053-0.558,1.564-0.775c0.558-0.236,1.12-0.408,1.664-0.573c1.213-0.369,2.356-0.716,3.335-1.697
				c2.04-2.039,2.302-3.219,2.942-6.072c0.084-0.384,0.338-1.008,0.603-1.67c0.458-1.134,0.932-2.307,0.932-3.061
				C172.31,182.913,171.571,181.471,170.857,180.075z M156.718,196.98c-6.917,0-12.523-5.606-12.523-12.521
				c0-6.916,5.606-12.522,12.523-12.522c6.915,0,12.521,5.606,12.521,12.522C169.239,191.375,163.633,196.98,156.718,196.98z"/>
			<path d="M156.718,173.015c-6.322,0-11.445,5.124-11.445,11.444c0,6.319,5.123,11.443,11.445,11.443
				c6.318,0,11.443-5.125,11.443-11.443C168.161,178.139,163.036,173.015,156.718,173.015z M160.987,187.872
				c0.449,0.039,0.855-0.173,1.022-0.937c1.481,0.255,1.071,2.908-0.355,2.399l-0.165,0.164c0.51,1.429-2.144,1.836-2.4,0.357
				c0.89-0.195,1.031-0.713,0.903-1.243l-3.285-3.285l-3.404,3.403c-0.037,0.448,0.174,0.855,0.939,1.022
				c-0.256,1.482-2.909,1.072-2.399-0.357l-0.165-0.164c-1.43,0.51-1.838-2.144-0.355-2.398c0.192,0.887,0.711,1.029,1.24,0.9
				l3.285-3.285l-3.402-3.403c-0.449-0.038-0.854,0.175-1.021,0.937c-1.482-0.255-1.074-2.908,0.355-2.399l0.165-0.163
				c-0.512-1.43,2.144-1.838,2.399-0.357c-0.889,0.195-1.03,0.711-0.902,1.243l3.285,3.285l3.404-3.403
				c0.037-0.448-0.174-0.855-0.939-1.023c0.256-1.482,2.911-1.072,2.399,0.357l0.165,0.164c1.43-0.51,1.838,2.145,0.355,2.4
				c-0.192-0.888-0.711-1.031-1.241-0.902l-3.284,3.285L160.987,187.872z"/>
		</g>
		<line fill="none" stroke="#000000" stroke-width="3" stroke-miterlimit="10" x1="108.269" y1="117.25" x2="162.192" y2="117.25"/>
		
			<line fill="none" stroke="#000000" stroke-width="3" stroke-miterlimit="10" x1="105.123" y1="126.359" x2="165.34" y2="126.359"/>
		
			<line fill="none" stroke="#000000" stroke-width="3" stroke-miterlimit="10" x1="101.905" y1="135.469" x2="168.558" y2="135.469"/>
		
			<line fill="none" stroke="#000000" stroke-width="3" stroke-miterlimit="10" x1="107.158" y1="144.577" x2="163.303" y2="144.577"/>
		
			<line fill="none" stroke="#000000" stroke-width="3" stroke-miterlimit="10" x1="100.053" y1="153.686" x2="170.408" y2="153.686"/>
		
			<line fill="none" stroke="#000000" stroke-width="3" stroke-miterlimit="10" x1="98.757" y1="162.796" x2="171.704" y2="162.796"/>
		<polygon points="108.208,99.956 135.386,71.8 164.086,99.956 		"/>
		<polygon points="158.529,204.453 135.796,225.855 112.653,204.453 		"/>
		<path d="M204.641,182.585l-15.302,5.226l4.12,3.601c-12.852,8.029-22.678,8.457-22.678,8.457l-23.597,23.298
			c0,0,27.613,2.649,50.049-28.458l4.282,3.741L204.641,182.585z"/>
		<path d="M66.7,182.585l15.303,5.226l-4.12,3.601c12.852,8.029,22.677,8.457,22.677,8.457l23.598,23.298
			c0,0-27.613,2.649-50.05-28.458l-4.281,3.741L66.7,182.585z"/>
		<rect x="104.933" y="181.962" fill="none" width="71.837" height="42.214"/>
		<text transform="matrix(1 0 0 1 104.9326 190.6367)" font-family="'MyriadPro-Bold'" font-size="12.2196">*****</text>
		<rect x="101.692" y="180.757" fill="none" stroke="#000000" stroke-miterlimit="10" width="34.438" height="8.137"/>
		<g>
			<path d="M71.877,150.917c4.193,0.004,11.026-0.006,15.157-0.013l-7.571-7.57L71.877,150.917z"/>
			<path d="M89.498,150.897c0.646,0,1.025-0.002,1.033-0.002c0,4.148-4.992,7.509-11.151,7.509c-6.158,0-11.15-3.361-11.15-7.509
				c0,0.009,0.442,0.013,1.185,0.017l9.753-9.755l0.213,0.213v-0.23h14.988l1.588-29.258l-37.77,37.214l33.881,34.438l2.189-40.367
				h-12.49L89.498,150.897z"/>
		</g>
		<g>
			<path d="M199.751,150.917l-7.585-7.583l-7.571,7.57C188.726,150.91,195.558,150.921,199.751,150.917z"/>
			<path d="M213.338,149.096l-37.77-37.214l1.588,29.258h15.092v0.23l0.213-0.213l9.753,9.755c0.742-0.004,1.186-0.008,1.186-0.017
				c0,4.148-4.993,7.509-11.151,7.509c-6.159,0-11.151-3.361-11.151-7.509c0.01,0,0.388,0.002,1.034,0.002l7.731-7.73h-12.596
				l2.189,40.367L213.338,149.096z"/>
		</g>
	</g>
</g>
</svg>
